<?xml version="1.0" encoding="utf-8"?>
<!-- Generator: Adobe Illustrator 15.0.0, SVG Export Plug-In . SVG Version: 6.00 Build 0)  -->
<!DOCTYPE svg PUBLIC "-//W3C//DTD SVG 1.0//EN" "http://www.w3.org/TR/2001/REC-SVG-20010904/DTD/svg10.dtd">
<svg version="1.0" id="Layer_1" xmlns="http://www.w3.org/2000/svg" xmlns:xlink="http://www.w3.org/1999/xlink" x="0px" y="0px"
	 width="360px" height="125.179px" viewBox="0 0 360 125.179" enable-background="new 0 0 360 125.179" xml:space="preserve">
<g>
	<path fill="#010101" d="M211.724,79.711h-4.526l-0.566-0.566v-16.41c0-2.829-0.564-6.79-5.658-6.79
		c-5.093,0-7.355,2.829-7.355,9.62v13.58l-0.566,0.566h-4.526l-0.566-0.566V51.984l0.566-0.566h3.961l0.565,0.566l0.566,2.264h0.566
		c0,0,2.263-3.396,7.355-3.396c7.922,0,10.751,5.093,10.751,11.883v16.41L211.724,79.711z M247.938,79.145l-0.565,0.566h-5.093
		l-0.565-0.566l-5.659-19.805h-0.565l-5.658,19.805l-0.566,0.566h-5.093l-0.565-0.566l-6.79-23.2v-3.961l0.565-0.566h3.396
		l0.565,0.566l5.093,19.239h0.565l5.659-19.239l0.564-0.566h5.094l0.565,0.566l5.659,19.239h0.566l5.092-19.239l0.564-0.566h3.396
		l0.565,0.566v3.961L247.938,79.145z M271.703,50.852c8.488,0,13.58,5.659,13.58,14.713c0,9.053-5.092,14.712-13.58,14.712
		s-13.58-5.659-13.58-14.712C258.123,56.511,263.215,50.852,271.703,50.852 M271.703,75.184c5.093,0,7.922-3.396,7.922-9.619
		c0-6.225-2.829-9.62-7.922-9.62s-7.922,3.396-7.922,9.62C263.781,71.789,266.61,75.184,271.703,75.184 M305.68,56.511h-2.831
		c-4.524,0-7.354,1.698-7.354,8.488v14.146l-0.565,0.566h-4.526l-0.566-0.566V51.984l0.566-0.566h3.961l0.565,0.566l0.565,2.264
		h0.564c1.699-1.698,3.396-2.83,7.357-2.83h2.264l0.566,0.566v3.961L305.68,56.511z M333.406,79.711h-2.266l-1.13-0.566
		l-8.487-10.751h-0.566l-3.961,3.961l-0.566,1.132v5.658l-0.565,0.566h-4.527l-0.565-0.566V41.8l0.565-0.566h4.527l0.565,0.566V65
		h0.566l13.015-13.016l1.13-0.566h1.699l0.566,0.566v3.961l-7.922,7.922v0.566l8.487,10.751v3.961L333.406,79.711z M348.684,80.277
		c-7.356,0-11.317-3.395-11.317-9.62l0.565-0.565h4.527l0.566,0.565c0,2.83,1.696,4.527,5.658,4.527
		c3.959,0,5.658-1.132,5.658-3.396c0-2.828-1.699-3.395-7.355-4.526c-5.659-1.132-9.055-3.396-9.055-8.488
		c0-3.961,2.829-7.922,10.752-7.922c6.225,0,10.75,2.83,10.75,8.488l-0.564,0.566h-4.527l-0.565-0.566
		c0-1.697-1.134-3.396-5.093-3.396c-2.83,0-5.093,0.566-5.093,2.829c0,2.83,2.263,3.396,7.921,4.527
		c5.659,1.132,8.488,3.395,8.488,8.487C360,76.316,356.605,80.277,348.684,80.277 M183.06,79.711h-19.614l-0.566-0.566v-3.961
		l0.566-0.566h6.412l0.566-0.565V57.077l-0.566-0.566h-3.582l-0.566-0.566v-3.961l0.566-0.566h9.241l0.566,0.566v22.068l0.566,0.565
		h6.412l0.566,0.566v3.961L183.06,79.711z M175.516,46.892h-4.527l-0.566-0.566v-4.527l0.566-0.565h4.527l0.566,0.565v4.527
		L175.516,46.892z"/>
	<path fill="#010101" d="M93.742,8.139H32.006l-0.854,0.493L0.284,62.097v0.985l30.868,53.465l0.854,0.492h61.736l0.852-0.492
		l30.869-53.465v-0.985L94.594,8.632L93.742,8.139z M91.229,13.477l0.011,0.019l-0.033-0.019H91.229z M34.54,13.477l-0.032,0.019
		l0.011-0.019H34.54z M6.174,62.609l-0.011-0.02l0.011-0.019V62.609z M34.519,111.702l-0.011-0.019l0.032,0.019H34.519z
		 M91.229,111.702h-0.022l0.033-0.019L91.229,111.702z M91.524,111.191l-0.886,0.511H35.109l-0.886-0.511L6.458,63.101v-1.023
		l27.765-48.09l0.886-0.511h55.529l0.886,0.511l27.765,48.09v1.023L91.524,111.191z M119.573,62.609V62.57l0.011,0.019
		L119.573,62.609z"/>
	<path fill="#010101" d="M125.747,62.589L125.747,62.589L125.747,62.589z"/>
	<path fill="#010101" d="M0,62.589L0,62.589z"/>
	<polygon fill="#010101" points="39.039,13.477 32.258,17.392 26.92,26.637 49.714,13.477 	"/>
	<path fill="#010101" d="M62.361,6.174h1.023l3.404,1.965h10.675L63.365,0h-0.984L48.284,8.139h10.675L62.361,6.174z M62.874,5.879
		l0.019,0.011h-0.038L62.874,5.879z"/>
	<polygon fill="#010101" points="8.424,31.152 8.423,31.152 8.423,31.153 	"/>
	<polygon fill="#010101" points="117.324,31.153 117.324,31.152 117.323,31.152 	"/>
	<polygon fill="#010101" points="98.827,26.636 93.49,17.391 86.708,13.476 76.034,13.476 	"/>
	<path fill="#010101" d="M111.474,33.939l0.512,0.886v3.93v10.674V75.75l5.337-9.244v-7.832V47.999V31.721l-0.493-0.853
		l-14.097-8.139l5.338,9.245L111.474,33.939z M111.986,34.234v0.022l-0.019-0.033L111.986,34.234z"/>
	<path fill="#010101" d="M117.323,93.458V77.179l-5.337,9.245v3.93l-0.512,0.886l-3.403,1.965l-5.338,9.245l14.097-8.139
		L117.323,93.458z M111.986,90.945l-0.019,0.011l0.019-0.032V90.945z"/>
	<polygon fill="#010101" points="86.708,111.702 93.489,107.787 98.827,98.542 76.034,111.702 	"/>
	<path fill="#010101" d="M63.386,119.004h-1.024l-3.403-1.965H48.284l14.098,8.14h0.984l14.098-8.14H66.789L63.386,119.004z
		 M62.874,119.3l-0.019-0.012h0.038L62.874,119.3z"/>
	<polygon fill="#010101" points="117.323,94.027 117.324,94.027 117.324,94.026 	"/>
	<polygon fill="#010101" points="26.92,98.542 32.257,107.788 39.04,111.703 49.713,111.703 	"/>
	<path fill="#010101" d="M14.272,91.24l-0.512-0.886v-3.93V75.75V49.43l-5.337,9.245v7.831v10.674v16.278l0.492,0.854l14.097,8.139
		l-5.337-9.245L14.272,91.24z M13.761,90.945v-0.021l0.019,0.032L13.761,90.945z"/>
	<path fill="#010101" d="M8.424,31.721v16.278l5.337-9.244v-3.93l0.512-0.886l3.403-1.965l5.338-9.245L8.916,30.868L8.424,31.721z
		 M13.761,34.234l0.019-0.011l-0.019,0.033V34.234z"/>
	<polygon fill="#010101" points="8.423,94.026 8.423,94.027 8.424,94.027 	"/>
	<polygon fill="#010101" points="65.147,46.821 60.6,46.821 60.031,46.252 60.031,41.705 60.6,41.137 65.147,41.137 65.715,41.705 
		65.715,46.252 	"/>
	<polygon fill="#010101" points="75.094,79.22 74.525,79.789 69.41,79.789 68.841,79.22 63.157,59.326 62.589,59.326 56.905,79.22 
		56.336,79.789 51.221,79.789 50.652,79.22 43.831,55.915 43.831,51.936 44.4,51.368 47.81,51.368 48.378,51.936 53.494,71.263 
		54.063,71.263 59.747,51.936 60.315,51.368 65.431,51.368 65.999,51.936 71.683,71.263 72.252,71.263 77.367,51.936 77.936,51.368 
		81.347,51.368 81.915,51.936 81.915,55.915 	"/>
</g>
</svg>
