<?xml version="1.0" encoding="utf-8"?>
<!-- Generator: Adobe Illustrator 15.0.0, SVG Export Plug-In . SVG Version: 6.00 Build 0)  -->
<!DOCTYPE svg PUBLIC "-//W3C//DTD SVG 1.0//EN" "http://www.w3.org/TR/2001/REC-SVG-20010904/DTD/svg10.dtd">
<svg version="1.0" id="Layer_1" xmlns="http://www.w3.org/2000/svg" xmlns:xlink="http://www.w3.org/1999/xlink" x="0px" y="0px"
	 width="216px" height="75.108px" viewBox="0 0 216 75.108" enable-background="new 0 0 216 75.108" xml:space="preserve">
<g>
	<path fill="#FFFFFF" d="M127.034,47.827h-2.716l-0.34-0.34v-9.846c0-1.697-0.338-4.074-3.395-4.074s-4.414,1.698-4.414,5.772v8.148
		l-0.34,0.34h-2.715l-0.34-0.34V31.19l0.34-0.339h2.376l0.339,0.339l0.34,1.358h0.34c0,0,1.357-2.038,4.414-2.038
		c4.753,0,6.45,3.056,6.45,7.13v9.846L127.034,47.827z M148.763,47.487l-0.339,0.34h-3.057l-0.339-0.34l-3.396-11.883h-0.34
		l-3.395,11.883l-0.34,0.34h-3.055l-0.34-0.34l-4.074-13.92V31.19l0.34-0.339h2.037l0.339,0.339l3.056,11.543h0.34l3.395-11.543
		l0.34-0.339h3.056l0.339,0.339l3.396,11.543h0.34l3.055-11.543l0.338-0.339h2.039l0.338,0.339v2.376L148.763,47.487z
		 M163.021,30.511c5.094,0,8.148,3.396,8.148,8.828c0,5.432-3.055,8.828-8.148,8.828c-5.092,0-8.147-3.396-8.147-8.828
		C154.874,33.907,157.93,30.511,163.021,30.511 M163.021,45.11c3.057,0,4.754-2.037,4.754-5.771s-1.697-5.772-4.754-5.772
		c-3.055,0-4.752,2.038-4.752,5.772S159.967,45.11,163.021,45.11 M183.408,33.907h-1.699c-2.715,0-4.412,1.019-4.412,5.093v8.487
		l-0.34,0.34h-2.715l-0.34-0.34V31.19l0.34-0.339h2.376l0.339,0.339l0.34,1.358h0.338c1.02-1.019,2.039-1.698,4.415-1.698h1.358
		l0.34,0.339v2.376L183.408,33.907z M200.044,47.827h-1.359l-0.679-0.34l-5.092-6.451h-0.34l-2.377,2.377l-0.34,0.68v3.395
		l-0.339,0.34h-2.716l-0.34-0.34V25.081l0.34-0.34h2.716l0.339,0.34V39h0.34l7.809-7.81l0.679-0.339h1.02l0.34,0.339v2.376
		l-4.753,4.753v0.34l5.092,6.45v2.377L200.044,47.827z M209.211,48.167c-4.414,0-6.791-2.037-6.791-5.773l0.34-0.338h2.716
		l0.34,0.338c0,1.699,1.018,2.717,3.396,2.717c2.375,0,3.395-0.679,3.395-2.037c0-1.697-1.02-2.037-4.414-2.716
		s-5.432-2.037-5.432-5.093c0-2.376,1.697-4.753,6.451-4.753c3.734,0,6.449,1.698,6.449,5.093l-0.338,0.339h-2.717l-0.34-0.339
		c0-1.019-0.68-2.038-3.055-2.038c-1.699,0-3.057,0.34-3.057,1.698c0,1.698,1.357,2.038,4.753,2.716
		c3.396,0.679,5.093,2.037,5.093,5.092C216,45.79,213.963,48.167,209.211,48.167 M109.836,47.827H98.067l-0.34-0.34V45.11l0.34-0.34
		h3.847l0.34-0.339V34.247l-0.34-0.34h-2.149l-0.34-0.34V31.19l0.34-0.339h5.544l0.34,0.339v13.241l0.339,0.339h3.847l0.34,0.34
		v2.377L109.836,47.827z M105.31,28.135h-2.716l-0.34-0.339V25.08l0.34-0.339h2.716l0.34,0.339v2.716L105.31,28.135z"/>
	<path fill="#FFFFFF" d="M56.246,4.883H19.204l-0.513,0.296L0.17,37.258v0.591l18.521,32.08l0.513,0.295h37.042l0.511-0.295
		l18.521-32.08v-0.591L56.757,5.179L56.246,4.883z M54.737,8.086l0.007,0.011l-0.02-0.011H54.737z M20.724,8.086l-0.019,0.011
		l0.006-0.011H20.724z M3.705,37.565l-0.007-0.012l0.007-0.012V37.565z M20.711,67.021l-0.006-0.01l0.019,0.01H20.711z
		 M54.737,67.021h-0.013l0.02-0.01L54.737,67.021z M54.915,66.715l-0.532,0.306H21.066l-0.532-0.306L3.875,37.861v-0.614
		L20.534,8.393l0.532-0.307h33.317l0.532,0.307l16.659,28.854v0.614L54.915,66.715z M71.744,37.565v-0.023l0.006,0.012
		L71.744,37.565z"/>
	<path fill="#FFFFFF" d="M75.448,37.554L75.448,37.554L75.448,37.554z"/>
	<path fill="#FFFFFF" d="M0,37.554"/>
	<polygon fill="#FFFFFF" points="23.423,8.086 19.355,10.435 16.152,15.982 29.829,8.086 	"/>
	<path fill="#FFFFFF" d="M37.417,3.705h0.614l2.042,1.179h6.405L38.019,0h-0.59L28.97,4.884h6.405L37.417,3.705z M37.724,3.527
		l0.012,0.007h-0.023L37.724,3.527z"/>
	<polygon fill="#FFFFFF" points="5.054,18.691 5.054,18.691 5.054,18.692 	"/>
	<polygon fill="#FFFFFF" points="70.395,18.692 70.395,18.691 70.394,18.691 	"/>
	<polygon fill="#FFFFFF" points="59.296,15.982 56.094,10.435 52.025,8.086 45.62,8.086 	"/>
	<path fill="#FFFFFF" d="M66.885,20.364l0.307,0.531v2.358v6.404V45.45l3.202-5.547v-4.699V28.8v-9.767l-0.296-0.512l-8.458-4.883
		l3.203,5.547L66.885,20.364z M67.192,20.541v0.013l-0.011-0.02L67.192,20.541z"/>
	<path fill="#FFFFFF" d="M70.394,56.075v-9.768l-3.202,5.547v2.357l-0.307,0.532l-2.042,1.179L61.64,61.47l8.458-4.883
		L70.394,56.075z M67.192,54.567l-0.011,0.006l0.011-0.02V54.567z"/>
	<polygon fill="#FFFFFF" points="52.025,67.021 56.094,64.673 59.296,59.126 45.62,67.021 	"/>
	<path fill="#FFFFFF" d="M38.032,71.403h-0.615l-2.042-1.18H28.97l8.458,4.885h0.59l8.459-4.885h-6.405L38.032,71.403z
		 M37.724,71.581l-0.011-0.008h0.023L37.724,71.581z"/>
	<polygon fill="#FFFFFF" points="70.394,56.417 70.395,56.417 70.395,56.415 	"/>
	<polygon fill="#FFFFFF" points="16.152,59.126 19.354,64.673 23.424,67.022 29.828,67.022 	"/>
	<path fill="#FFFFFF" d="M8.563,54.744l-0.307-0.532v-2.357V45.45V29.658l-3.202,5.547v4.698v6.404v9.768l0.295,0.512l8.458,4.883
		l-3.202-5.547L8.563,54.744z M8.256,54.567v-0.014l0.012,0.02L8.256,54.567z"/>
	<path fill="#FFFFFF" d="M5.054,19.033V28.8l3.202-5.547v-2.358l0.307-0.531l2.042-1.179l3.203-5.547L5.35,18.521L5.054,19.033z
		 M8.256,20.541l0.012-0.007l-0.012,0.02V20.541z"/>
	<polygon fill="#FFFFFF" points="5.054,56.415 5.054,56.417 5.055,56.417 	"/>
	<polygon fill="#FFFFFF" points="39.088,28.093 36.36,28.093 36.019,27.751 36.019,25.023 36.36,24.682 39.088,24.682 
		39.429,25.023 39.429,27.751 	"/>
	<polygon fill="#FFFFFF" points="45.057,47.532 44.715,47.874 41.646,47.874 41.305,47.532 37.895,35.596 37.554,35.596 
		34.143,47.532 33.802,47.874 30.733,47.874 30.392,47.532 26.299,33.549 26.299,31.162 26.64,30.821 28.686,30.821 29.027,31.162 
		32.097,42.759 32.438,42.759 35.848,31.162 36.189,30.821 39.259,30.821 39.6,31.162 43.01,42.759 43.351,42.759 46.42,31.162 
		46.762,30.821 48.809,30.821 49.149,31.162 49.149,33.549 	"/>
</g>
</svg>
