<?xml version="1.0" encoding="utf-8"?>
<!-- Generator: Adobe Illustrator 15.0.0, SVG Export Plug-In . SVG Version: 6.00 Build 0)  -->
<!DOCTYPE svg PUBLIC "-//W3C//DTD SVG 1.1//EN" "http://www.w3.org/Graphics/SVG/1.1/DTD/svg11.dtd">
<svg version="1.1" id="Layer_1" xmlns="http://www.w3.org/2000/svg" xmlns:xlink="http://www.w3.org/1999/xlink" x="0px" y="0px"
	 width="360px" height="360px" viewBox="0 0 360 360" enable-background="new 0 0 360 360" xml:space="preserve">
<g>
	<defs>
		<rect id="SVGID_1_" width="360" height="360"/>
	</defs>
	<clipPath id="SVGID_2_">
		<use xlink:href="#SVGID_1_"  overflow="visible"/>
	</clipPath>
	<path clip-path="url(#SVGID_2_)" d="M241.215,12.084c-3.905-0.458-7.546-0.901-11.191-1.309
		c-5.048-0.564-10.042-0.077-14.979,0.983c-6.372,1.368-12.052,4.113-16.709,8.766c-4.64,4.637-7.413,10.32-9.197,16.548
		c-0.298,1.039-0.552,2.092-1.038,2.887c1.974-1.778,3.97-3.53,5.916-5.336c7.725-7.163,16.809-11.535,27.224-12.964
		c7.384-1.013,14.681-0.332,21.822,1.883c1.118,0.347,1.345,0.76,0.847,1.88c-0.969,2.176-1.84,4.406-2.575,6.671
		c-0.44,1.355-1.041,1.587-2.374,1.214c-8.935-2.503-17.728-2.1-26.333,1.476c-6.475,2.691-11.686,7.03-16.13,12.362
		c-1.112,1.334-2.129,2.747-3.442,4.452h2.431H331.66c0.571,0,1.145,0.024,1.716,0.005c0.875-0.029,1.225,0.394,1.166,1.242
		c-0.029,0.414-0.003,0.831-0.003,1.247v303.393c0,0.156,0.001,0.312,0,0.468c-0.004,2.045-0.004,2.049-2.012,2.049H27.576
		c-2.122,0-2.123-0.002-2.123-2.249c-0.001-86.676-0.001-173.353-0.001-260.028c0-14.611,0-29.222,0.001-43.832
		c0-2.29,0.001-2.294,2.299-2.294c48.667-0.001,97.334,0,146.002-0.001c2.641,0,2.503-0.012,2.723-2.658
		c1.035-12.433,4.186-24.132,12.608-33.779c7.445-8.527,17.141-12.757,28.171-14.508c4.717-0.749,9.428-0.751,14.114-0.505
		c3.845,0.201,7.651,1.179,11.458,1.9c0.354,0.068,0.909,0.849,0.83,1.163C242.902,6.212,242.03,9.187,241.215,12.084
		 M172.855,202.306h-1.468c-6.551,0-13.101-0.031-19.652,0.024c-1.418,0.013-1.842-0.426-1.836-1.869
		c0.054-13.049,0.032-26.098,0.032-39.148c0-2.303-0.001-2.305-2.232-2.305c-26.722,0-53.445,0-80.168,0
		c-2.24,0-2.24,0.002-2.24,2.298c0,46.115-0.008,92.229,0.006,138.344c0.003,7.655,3.002,14.152,8.268,19.53
		c5.716,5.842,12.961,8.412,21.008,8.42c56.357,0.057,112.714,0.039,169.071,0.01c3.934-0.002,7.76-0.724,11.515-2.048
		c10.056-3.544,18.311-14.213,18.307-26.329c-0.015-46.062-0.006-92.125-0.007-138.188c0-2.032-0.003-2.036-2.034-2.036
		c-24.071-0.001-48.143,0.012-72.213-0.031c-1.515-0.002-2.038,0.308-2.028,1.96c0.076,13.101,0.043,26.203,0.041,39.304
		c0,2.05-0.004,2.061-2.055,2.062c-6.343,0.005-12.687,0.027-19.028-0.019c-1.248-0.01-1.741,0.313-1.709,1.659
		c0.087,3.638-0.019,7.279,0.041,10.917c0.101,6.146-5.111,11.153-10.999,11.083c-5.344-0.063-11.056-4.915-10.661-11.695
		C173.042,210.326,172.855,206.378,172.855,202.306 M135.407,140.838c-0.525-3.868-0.154-7.357,1.975-10.474
		c2.137-3.128,4.989-5.163,9.038-5.876v16.621h3.639v-1.911c0-12.063-0.001-24.126,0.001-36.189c0.001-3.476-0.038-2.778,2.87-2.792
		c7.279-0.034,14.559-0.05,21.838,0.022c1.412,0.014,1.764-0.423,1.722-1.771c-0.094-3.065-0.124-6.138,0.009-9.2
		c0.069-1.609-0.432-1.98-2.001-1.977c-26.05,0.05-52.1,0.02-78.15,0.05c-4.73,0.006-9.369,0.638-13.806,2.462
		c-9.619,3.955-17.036,14.002-17.228,24.809c-0.143,8.005-0.025,16.014-0.023,24.021c0,2.201,0.001,2.204,2.183,2.204
		c21.994,0,43.988,0,65.983,0H135.407z M232.628,140.73c0.554,0.041,1.01,0.104,1.466,0.104c19.231,0.004,38.463-0.011,57.694,0.035
		c1.443,0.004,1.706-0.511,1.697-1.813c-0.054-7.796-0.016-15.593-0.032-23.389c-0.007-3.727-0.688-7.345-2.232-10.735
		c-5.342-11.719-14.803-17.371-27.374-17.538c-19.02-0.253-38.046-0.065-57.069-0.065c-6.289,0-12.578,0.034-18.866-0.029
		c-1.259-0.012-1.592,0.37-1.562,1.591c0.081,3.221,0.082,6.446,0,9.667c-0.033,1.285,0.348,1.684,1.658,1.676
		c9.096-0.052,18.191,0.015,27.287-0.067c1.62-0.014,1.979,0.479,1.973,2.022c-0.06,12.526-0.015,25.052-0.062,37.579
		c-0.005,1.308,0.381,1.729,1.671,1.655c1.151-0.065,2.109,0.089,2.068-1.638c-0.104-4.467-0.04-8.939-0.022-13.409
		c0.003-0.646,0.123-1.292,0.188-1.925C228.851,124.767,233.694,131.614,232.628,140.73"/>
	<path clip-path="url(#SVGID_2_)" fill="#FFFFFF" d="M172.855,202.306c0,4.072,0.187,8.021-0.042,11.944
		c-0.395,6.78,5.317,11.632,10.661,11.695c5.888,0.07,11.1-4.937,10.999-11.083c-0.06-3.638,0.046-7.279-0.041-10.917
		c-0.032-1.346,0.461-1.669,1.709-1.659c6.342,0.046,12.686,0.023,19.028,0.019c2.051-0.002,2.055-0.013,2.055-2.062
		c0.002-13.102,0.035-26.203-0.041-39.304c-0.01-1.653,0.514-1.963,2.028-1.96c24.07,0.042,48.142,0.03,72.213,0.031
		c2.031,0,2.034,0.004,2.034,2.036c0.001,46.063-0.008,92.125,0.007,138.188c0.004,12.116-8.251,22.785-18.307,26.33
		c-3.755,1.322-7.581,2.045-11.515,2.047c-56.356,0.029-112.714,0.047-169.071-0.01c-8.047-0.008-15.292-2.579-21.008-8.42
		c-5.266-5.378-8.265-11.875-8.268-19.53c-0.014-46.115-0.006-92.229-0.006-138.345c0-2.295,0-2.297,2.24-2.297
		c26.723,0,53.446,0,80.168,0c2.231,0,2.232,0.002,2.232,2.305c0,13.05,0.022,26.099-0.032,39.148
		c-0.006,1.443,0.418,1.882,1.836,1.869c6.551-0.056,13.102-0.024,19.652-0.024H172.855z M236.932,287.607
		c0,9.251,0.021,18.503-0.025,27.754c-0.007,1.259,0.217,1.916,1.647,1.963c3.154,0.101,6.301,0.395,9.455,0.513
		c5.141,0.192,10.256-0.072,15.287-1.24c7.928-1.841,14.487-5.724,18.496-13.041c4.251-7.757,5.119-16.07,3.47-24.691
		c-2.954-15.443-15.321-20.781-27.404-21.606c-2.801-0.191-5.639,0.015-8.453,0.169c-3.628,0.197-7.246,0.567-10.874,0.778
		c-1.257,0.074-1.638,0.532-1.631,1.805C236.955,269.209,236.93,278.408,236.932,287.607 M191.337,307.824
		c-0.499,1.398-1.069,3.22-1.804,4.972c-0.472,1.125-0.148,1.769,0.844,2.257c0.418,0.207,0.821,0.447,1.248,0.631
		c6.164,2.657,12.559,3.476,19.134,2.077c5.199-1.106,9.634-3.56,12.489-8.256c3.83-6.3,3.258-15.021-2.695-19.803
		c-1.82-1.462-3.95-2.535-5.931-3.781c0.452-0.251,1.098-0.568,1.702-0.951c5.095-3.227,7.736-7.765,6.973-13.867
		c-0.752-6.002-4.39-9.663-10.039-11.44c-2.927-0.921-5.906-1.013-8.978-0.779c-4.493,0.342-8.582,1.665-12.325,4.118
		c-0.254,0.167-0.572,0.621-0.506,0.827c0.658,2.037,1.391,4.05,2.138,6.167c1.136-0.65,1.97-1.178,2.846-1.621
		c3.692-1.87,7.545-2.822,11.707-2.017c3.425,0.662,5.588,2.672,6.267,5.887c0.707,3.344-0.585,6.513-3.427,8.396
		c-3.116,2.065-6.598,2.477-10.233,2.371c-3.066-0.087-3.068-0.018-3.069,3.013c0,4.235-0.005,4.102,4.244,3.941
		c3.823-0.144,7.492,0.583,10.751,2.851c5.274,3.67,5.008,12.264,0.27,15.771c-3.377,2.5-7.268,2.848-11.126,2.209
		C198.339,310.222,194.988,308.893,191.337,307.824"/>
	<path clip-path="url(#SVGID_2_)" fill="#FFFFFF" d="M135.407,140.838h-1.95c-21.994,0-43.988,0-65.983,0
		c-2.182,0-2.183-0.003-2.183-2.204c-0.002-8.007-0.119-16.017,0.023-24.021c0.193-10.807,7.61-20.854,17.228-24.809
		c4.437-1.824,9.076-2.457,13.806-2.462c26.05-0.03,52.1,0,78.15-0.05c1.569-0.003,2.071,0.368,2.001,1.976
		c-0.133,3.062-0.103,6.136-0.009,9.201c0.042,1.347-0.31,1.784-1.722,1.77c-7.279-0.072-14.559-0.056-21.838-0.022
		c-2.908,0.014-2.869-0.684-2.87,2.792c-0.002,12.063-0.001,24.126-0.001,36.189v1.911h-3.638v-16.622
		c-4.05,0.714-6.902,2.748-9.038,5.877C135.254,133.481,134.882,136.969,135.407,140.838"/>
	<path clip-path="url(#SVGID_2_)" fill="#FFFFFF" d="M232.628,140.73c1.066-9.116-3.777-15.963-11.518-16.279
		c-0.064,0.633-0.185,1.279-0.188,1.925c-0.018,4.47-0.082,8.942,0.022,13.409c0.041,1.727-0.917,1.573-2.068,1.638
		c-1.29,0.074-1.676-0.347-1.671-1.655c0.047-12.527,0.002-25.053,0.062-37.579c0.007-1.543-0.353-2.036-1.973-2.022
		c-9.096,0.082-18.191,0.015-27.287,0.067c-1.311,0.008-1.691-0.391-1.658-1.676c0.082-3.221,0.081-6.446,0-9.667
		c-0.03-1.221,0.303-1.603,1.562-1.591c6.288,0.063,12.577,0.029,18.866,0.029c19.023,0,38.05-0.188,57.069,0.065
		c12.571,0.167,22.032,5.819,27.374,17.538c1.545,3.39,2.226,7.008,2.232,10.735c0.017,7.796-0.021,15.593,0.032,23.389
		c0.009,1.302-0.254,1.817-1.697,1.813c-19.231-0.046-38.463-0.031-57.694-0.035C233.638,140.834,233.182,140.771,232.628,140.73"/>
	<path clip-path="url(#SVGID_2_)" d="M236.931,287.607c-0.001-9.2,0.024-18.398-0.03-27.598c-0.008-1.272,0.373-1.73,1.63-1.805
		c3.628-0.211,7.246-0.581,10.874-0.778c2.814-0.154,5.652-0.36,8.454-0.169c12.082,0.825,24.449,6.163,27.403,21.606
		c1.649,8.621,0.781,16.935-3.47,24.691c-4.009,7.317-10.568,11.2-18.495,13.041c-5.032,1.168-10.147,1.433-15.288,1.24
		c-3.154-0.118-6.301-0.412-9.455-0.514c-1.431-0.046-1.653-0.703-1.647-1.962C236.953,306.11,236.932,296.858,236.931,287.607
		 M245.525,287.344c0,7.016,0.024,14.032-0.021,21.049c-0.01,1.379,0.274,2.172,1.865,2.121c3.444-0.109,6.935,0.199,10.332-0.241
		c8.792-1.141,15.316-5.437,18.062-14.712c1.405-4.747,1.609-9.629,0.805-14.481c-1.227-7.392-5.226-12.685-12.452-15.18
		c-5.408-1.868-10.988-1.739-16.607-1.254c-1.757,0.151-2.037,0.867-2.019,2.428C245.571,273.83,245.524,280.587,245.525,287.344"/>
	<path clip-path="url(#SVGID_2_)" d="M191.337,307.824c3.651,1.068,7.002,2.397,10.479,2.972c3.858,0.639,7.749,0.291,11.126-2.209
		c4.738-3.507,5.005-12.101-0.27-15.771c-3.259-2.268-6.928-2.994-10.751-2.851c-4.249,0.16-4.244,0.294-4.244-3.941
		c0.001-3.03,0.003-3.1,3.069-3.013c3.636,0.105,7.117-0.306,10.233-2.371c2.842-1.884,4.134-5.053,3.427-8.396
		c-0.679-3.215-2.842-5.225-6.267-5.887c-4.162-0.806-8.015,0.146-11.707,2.017c-0.876,0.443-1.71,0.971-2.846,1.621
		c-0.747-2.117-1.479-4.13-2.138-6.167c-0.066-0.206,0.252-0.66,0.506-0.827c3.743-2.453,7.832-3.776,12.325-4.118
		c3.071-0.233,6.051-0.142,8.978,0.779c5.649,1.777,9.287,5.438,10.039,11.44c0.764,6.103-1.878,10.641-6.973,13.867
		c-0.604,0.383-1.25,0.7-1.702,0.951c1.98,1.246,4.11,2.319,5.931,3.781c5.953,4.781,6.525,13.503,2.695,19.803
		c-2.855,4.696-7.29,7.149-12.489,8.256c-6.575,1.398-12.97,0.58-19.134-2.077c-0.427-0.184-0.83-0.424-1.248-0.631
		c-0.992-0.488-1.315-1.132-0.844-2.257C190.268,311.044,190.838,309.223,191.337,307.824"/>
	<path clip-path="url(#SVGID_2_)" fill="#FFFFFF" d="M245.524,287.344c0-6.757,0.047-13.514-0.034-20.271
		c-0.019-1.561,0.262-2.276,2.019-2.428c5.619-0.485,11.199-0.614,16.607,1.254c7.227,2.495,11.226,7.788,12.452,15.18
		c0.805,4.853,0.601,9.734-0.805,14.481c-2.746,9.275-9.271,13.571-18.062,14.712c-3.397,0.44-6.888,0.132-10.332,0.241
		c-1.591,0.051-1.875-0.742-1.866-2.121C245.55,301.376,245.525,294.359,245.524,287.344"/>
</g>
</svg>
