<?xml version="1.0" encoding="utf-8"?>
<!-- Generator: Adobe Illustrator 15.0.0, SVG Export Plug-In . SVG Version: 6.00 Build 0)  -->
<!DOCTYPE svg PUBLIC "-//W3C//DTD SVG 1.1//EN" "http://www.w3.org/Graphics/SVG/1.1/DTD/svg11.dtd">
<svg version="1.1" id="Layer_1" xmlns="http://www.w3.org/2000/svg" xmlns:xlink="http://www.w3.org/1999/xlink" x="0px" y="0px"
	 width="360px" height="360px" viewBox="0 0 360 360" enable-background="new 0 0 360 360" xml:space="preserve">
<g>
	<defs>
		<rect id="SVGID_1_" width="360" height="360"/>
	</defs>
	<clipPath id="SVGID_2_">
		<use xlink:href="#SVGID_1_"  overflow="visible"/>
	</clipPath>
	<path clip-path="url(#SVGID_2_)" d="M161.866,238.021c-1.672-1.548-3.06-2.762-4.368-4.056c-4.273-4.23-8.54-8.468-12.766-12.746
		c-3.819-3.866-7.567-7.803-11.372-11.681c-1.761-1.796-3.629-3.488-5.361-5.311c-1.248-1.312-0.69-2.952-0.442-4.454
		c0.408-2.47,0.95-4.917,1.425-7.377c0.377-1.951,0.691-3.916,1.153-5.847c0.071-0.299,0.856-0.69,1.196-0.601
		c0.554,0.145,1.074,0.59,1.502,1.015c4.452,4.421,8.902,8.845,13.314,13.305c3.191,3.226,6.283,6.551,9.494,9.756
		c3.808,3.801,7.732,7.486,11.54,11.287c3.132,3.125,6.153,6.361,9.257,9.515c0.943,0.957,1.956,1.858,3.028,2.664
		c0.375,0.282,1.111,0.422,1.533,0.252c3.912-1.571,7.991-2.873,11.632-4.94c4.743-2.694,9.131-6.014,13.67-9.065
		c0.327-0.22,0.646-0.45,0.879-0.613c-22.182-22.17-44.179-44.154-66.36-66.323c-1.167,1.438-2.496,3.051-3.799,4.684
		c-3.71,4.647-6.238,9.959-8.464,15.41c-2.363,5.787-4.936,11.511-5.752,17.818c-0.262,2.024-1.102,3.975-1.349,5.999
		c-0.376,3.075-0.474,6.185-0.669,9.28c-0.06,0.949,0.083,1.928-0.094,2.85c-0.788,4.093-0.811,8.191-0.593,12.346
		c0.342,6.529,0.341,13.077,0.615,19.611c0.17,4.068,0.623,8.124,0.864,12.19c0.252,4.253,0.392,8.513,0.602,12.768
		c0.116,2.332,0.162,4.675,0.44,6.988c0.509,4.223,0.116,8.377-0.416,12.566c-0.294,2.312,0.157,4.71-0.057,7.04
		c-0.294,3.22-0.899,6.411-1.37,9.615c-0.057,0.386-0.199,0.78-0.158,1.155c0.272,2.485-0.341,4.794-1.151,7.118
		c-0.462,1.324-0.461,2.801-0.779,4.185c-1.58,6.856-3.592,13.596-6.431,20.031c-1.715,3.888-3.826,7.616-5.963,11.299
		c-1.96,3.377-4.18,6.604-6.311,9.882c-0.755,1.161-1.574,2.281-2.38,3.408c-0.86,1.202-1.869,1.229-2.911,0.209
		c-4.402-4.312-8.826-8.604-13.248-12.896c-0.904-0.877-0.734-1.692-0.095-2.677c3.081-4.742,6.247-9.437,9.094-14.316
		c1.613-2.768,3.152-5.748,3.866-8.831c1.272-5.489,3.695-10.654,4.127-16.4c0.357-4.764,1.476-9.468,2.174-14.211
		c0.124-0.845-0.273-1.754-0.238-2.626c0.115-2.854,0.398-5.704,0.452-8.559c0.027-1.43-0.433-2.866-0.439-4.301
		c-0.012-2.521,0.296-5.046,0.213-7.562c-0.098-2.958-0.468-5.906-0.728-8.859c-0.025-0.277-0.148-0.549-0.155-0.825
		c-0.151-5.853-0.267-11.705-0.455-17.556c-0.038-1.158-0.459-2.302-0.508-3.461c-0.125-3.014-0.131-6.032-0.205-9.048
		c-0.058-2.354-0.193-4.705-0.209-7.058c-0.032-4.648-0.198-9.309,0.059-13.944c0.196-3.551,1-7.064,1.449-10.605
		c0.268-2.111,0.288-4.255,0.581-6.361c0.239-1.711,0.648-3.408,1.104-5.078c0.964-3.53,1.939-7.062,3.046-10.549
		c0.651-2.052,1.556-4.024,2.362-6.026c0.931-2.312,1.625-4.767,2.868-6.9c3.512-6.027,7.011-12.088,10.962-17.829
		c5.26-7.642,11.812-14.143,18.887-20.167c7.592-6.462,15.872-11.824,24.854-16.025c4.362-2.04,9.08-3.333,13.67-4.863
		c2.647-0.882,5.343-1.636,8.051-2.312c1.878-0.469,3.809-0.74,5.727-1.034c2.564-0.395,5.139-0.728,7.709-1.083
		c0.72-0.099,1.439-0.23,2.163-0.267c4.525-0.233,9.051-0.513,13.58-0.633c2.178-0.058,4.363,0.21,6.546,0.311
		c2.504,0.115,5.009,0.247,7.515,0.297c1.096,0.022,2.028,0.07,2.18,1.463c0.197,1.806,0.483,3.602,0.659,5.41
		c0.125,1.279,0.084,2.574,0.199,3.855c0.293,3.264,0.673,6.522,0.933,9.789c0.106,1.339-0.728,1.797-2.452,1.701
		c-4.419-0.245-8.84-0.515-13.264-0.627c-4.029-0.102-8.069-0.137-12.094,0.043c-2.665,0.119-5.312,0.655-7.961,1.049
		c-0.349,0.051-0.659,0.366-1.14,0.648c0.514,0.593,0.914,1.118,1.377,1.581c11.573,11.555,23.141,23.115,34.75,34.634
		c0.99,0.982,1.357,2.007,1.164,3.312c-0.459,3.121-0.839,6.256-1.42,9.353c-0.335,1.787-0.957,3.524-1.525,5.258
		c-0.384,1.171-1.45,1.392-2.314,0.534c-4.931-4.891-9.874-9.77-14.772-14.691c-4.903-4.927-9.742-9.918-14.642-14.848
		c-6.485-6.523-13.024-12.993-19.482-19.544c-0.92-0.933-1.664-1.134-2.872-0.648c-6.492,2.614-12.665,5.758-18.066,10.289
		c-1.787,1.499-3.684,2.868-5.531,4.294c-0.398,0.308-0.801,0.608-1.212,0.92c2.214,2.287,4.229,4.378,6.254,6.46
		c2.964,3.046,5.917,6.105,8.911,9.122c2.411,2.429,4.889,4.792,7.315,7.207c8.199,8.162,16.394,16.33,24.582,24.504
		c6.267,6.255,12.535,12.508,18.766,18.799c0.976,0.985,1.438,0.952,2.265-0.237c2.59-3.725,5.395-7.299,8.013-11.005
		c2.79-3.949,4.97-8.218,6.485-12.836c0.603-1.835,1.668-3.514,2.319-5.335c0.644-1.798,1.065-3.679,1.516-5.54
		c0.339-1.399,0.651-2.813,0.83-4.238c0.412-3.292,0.709-6.598,1.106-9.892c0.259-2.149,0.82-4.28,0.882-6.429
		c0.137-4.759,0.135-9.526,0.01-14.285c-0.073-2.789-0.517-5.567-0.741-8.354c-0.062-0.771,0.151-1.563,0.086-2.333
		c-0.209-2.45-0.5-4.893-0.738-7.34c-0.098-1.002-0.147-2.009-0.206-3.015c-0.243-4.118-0.468-8.238-0.729-12.356
		c-0.174-2.74-0.468-5.474-0.583-8.215c-0.277-6.597-0.521-13.195-0.691-19.795c-0.064-2.46,0.078-4.929,0.194-7.39
		c0.107-2.27,0.196-4.55,0.491-6.799c0.339-2.578,0.902-5.127,1.354-7.691c0.076-0.429,0.105-0.871,0.104-1.307
		c-0.002-0.447-0.172-0.911-0.092-1.335c0.429-2.254,0.813-4.524,1.402-6.739c0.691-2.605,1.505-5.184,2.396-7.728
		c1.437-4.096,2.707-8.284,4.549-12.196c2.235-4.746,4.886-9.31,7.56-13.832c1.821-3.08,3.95-5.983,6.018-8.911
		c1.566-2.218,2.456-2.237,4.363-0.346c4.03,3.996,8.071,7.982,12.102,11.977c1.009,1,0.638,1.902-0.046,2.975
		c-3.001,4.712-6.345,9.274-8.742,14.285c-2.678,5.595-4.604,11.569-6.576,17.473c-0.795,2.381-0.822,5.014-1.24,7.525
		c-0.46,2.756-0.979,5.502-1.445,8.256c-0.112,0.659-0.146,1.334-0.18,2.003c-0.198,3.946-0.419,7.891-0.559,11.838
		c-0.048,1.338,0.125,2.682,0.179,4.024c0.128,3.177,0.201,6.356,0.382,9.529c0.118,2.102,0.432,4.191,0.567,6.292
		c0.114,1.776,0.052,3.562,0.155,5.339c0.071,1.214,0.277,2.422,0.455,3.628c0.122,0.827,0.394,1.641,0.435,2.469
		c0.226,4.617-0.095,9.327,0.733,13.829c0.837,4.554,0.033,9.047,0.569,13.556c0.434,3.658,0.494,7.392,0.345,11.077
		c-0.186,4.556-0.76,9.096-1.165,13.643c-0.024,0.279-0.086,0.566-0.049,0.838c0.424,3.105-0.356,6.038-1.132,9.003
		c-0.789,3.013-1.208,6.126-2.062,9.117c-0.886,3.1-2.023,6.137-3.193,9.146c-1.273,3.277-2.474,6.618-4.133,9.702
		c-2.459,4.568-5.052,9.104-8.025,13.346c-4.13,5.889-8.719,11.467-13.969,16.409c-3.331,3.135-6.942,5.979-10.506,8.856
		c-2.692,2.174-5.411,4.343-8.298,6.24c-2.751,1.808-5.674,3.384-8.631,4.839c-3.899,1.919-7.847,3.771-11.887,5.363
		c-2.986,1.178-6.142,1.936-9.243,2.804c-3.16,0.885-6.327,1.753-9.526,2.477c-2.003,0.454-4.065,0.66-6.109,0.917
		c-3.44,0.433-6.885,0.822-10.33,1.217c-0.667,0.077-1.341,0.133-2.012,0.134c-5.044,0.011-10.089,0.041-15.133-0.008
		c-2.522-0.024-5.043-0.21-7.565-0.305c-0.913-0.034-1.474-0.241-1.36-1.388c0.068-0.678-0.37-1.392-0.404-2.098
		c-0.091-1.834-0.003-3.68-0.134-5.51c-0.25-3.512-0.679-7.013-0.885-10.526c-0.134-2.291,0.469-2.705,2.774-2.48
		c2.732,0.268,5.469,0.7,8.202,0.68c3.956-0.029,7.909-0.424,11.865-0.619c2.17-0.107,4.354-0.025,6.516-0.216
		C158.235,238.907,159.727,238.459,161.866,238.021"/>
	<path clip-path="url(#SVGID_2_)" d="M52.32,262.806c2.962,2.808,5.963,5.576,8.877,8.433c4.921,4.824,9.799,9.693,14.673,14.565
		c4.594,4.593,9.143,9.231,13.747,13.813c1.493,1.485,2.54,3.159,2.422,5.307c-0.068,1.233-0.31,2.489-0.682,3.67
		c-0.982,3.116-2.08,6.196-3.127,9.292c-0.425,1.254-1.292,1.253-2.069,0.517c-2.553-2.422-5.031-4.924-7.527-7.406
		c-1.672-1.664-3.321-3.353-4.985-5.023c-3.433-3.446-6.866-6.891-10.303-10.332c-5.141-5.146-10.269-10.306-15.435-15.428
		c-3.571-3.54-7.2-7.021-10.792-10.54c-0.317-0.31-0.564-0.694-0.823-1.059c-0.661-0.931-1.446-1.037-2.486-0.583
		c-6.331,2.762-12.434,5.903-17.898,10.201c-0.478,0.376-1.504,0.086-2.271,0.041c-0.171-0.01-0.328-0.287-0.487-0.446
		c-4.034-4.056-8.082-8.098-12.096-12.174c-1.532-1.556-1.411-2.555,0.437-3.879c1.762-1.263,3.507-2.567,5.368-3.67
		c5.437-3.22,10.85-6.495,16.428-9.455c3.143-1.668,6.568-2.827,9.915-4.081c2.748-1.029,5.516-2.109,8.37-2.722
		c4.884-1.048,9.84-1.764,14.77-2.588c2.683-0.448,5.374-0.858,8.068-1.236c1.27-0.179,2.555-0.269,3.837-0.352
		c3.052-0.198,6.106-0.39,9.161-0.541c1.792-0.089,3.589-0.157,5.382-0.123c2.513,0.048,5.023,0.222,7.536,0.302
		c2.407,0.076,2.545,0.17,2.511,2.647c-0.021,1.51-0.549,3.143-0.137,4.504c1.221,4.039,0.581,8.14,0.881,12.2
		c0.124,1.679-0.499,2.402-2.121,2.422c-2.564,0.029-5.128,0.067-7.691,0.117c-2.877,0.056-5.753,0.13-8.629,0.19
		c-1.402,0.03-2.811-0.029-4.206,0.089c-3.224,0.273-6.448,0.577-9.659,0.97c-2.211,0.271-4.404,0.696-6.6,1.082
		c-0.683,0.12-1.349,0.337-2.023,0.508C52.544,262.294,52.432,262.55,52.32,262.806"/>
	<path clip-path="url(#SVGID_2_)" d="M306.476,98.12c-3.872-3.937-7.443-7.57-11.018-11.201
		c-5.018-5.098-10.016-10.216-15.063-15.284c-2.719-2.73-5.536-5.361-8.281-8.066c-1.511-1.49-3.009-2.998-4.408-4.592
		c-0.336-0.384-0.429-1.171-0.329-1.717c0.473-2.591,0.971-5.183,1.617-7.736c0.56-2.213,1.258-4.399,2.032-6.548
		c0.541-1.5,1.188-1.595,2.331-0.469c2.673,2.632,5.312,5.298,7.966,7.951c9.342,9.341,18.683,18.682,28.024,28.023
		c4.466,4.467,8.947,8.919,13.383,13.416c0.745,0.755,1.317,0.91,2.32,0.407c2.891-1.448,5.876-2.707,8.779-4.132
		c1.093-0.536,2.07-1.312,3.086-1.999c2.191-1.485,4.413-2.928,6.542-4.497c1.139-0.839,1.941-0.953,3.021,0.156
		c4.108,4.219,8.308,8.349,12.466,12.52c1.346,1.35,1.473,2.136-0.014,3.179c-4.229,2.969-8.491,5.914-12.912,8.584
		c-3.539,2.138-7.292,3.936-11.017,5.75c-5.53,2.693-11.32,4.673-17.335,6.009c-2.982,0.663-5.905,1.612-8.9,2.194
		c-2.046,0.398-4.176,0.349-6.26,0.573c-1.213,0.131-2.404,0.459-3.617,0.605c-2.889,0.347-5.78,0.855-8.677,0.904
		c-5.654,0.094-11.312-0.08-16.969-0.151c-1.123-0.014-2.28,0.086-3.355-0.159c-0.59-0.134-1.443-0.84-1.492-1.353
		c-0.557-5.825-0.985-11.663-1.43-17.499c-0.042-0.555,0.017-1.123,0.086-1.679c0.138-1.105,0.686-1.699,1.905-1.606
		c2.736,0.21,5.477,0.481,8.216,0.499c3.687,0.023,7.374-0.192,11.062-0.256c1.872-0.033,3.771,0.242,5.614,0.023
		c2.957-0.351,5.875-1.016,8.816-1.505c0.655-0.109,1.344-0.001,2.013-0.053C305.235,98.368,305.785,98.236,306.476,98.12"/>
</g>
</svg>
