<?xml version="1.0" encoding="utf-8"?>
<!-- Generator: Adobe Illustrator 15.0.0, SVG Export Plug-In . SVG Version: 6.00 Build 0)  -->
<!DOCTYPE svg PUBLIC "-//W3C//DTD SVG 1.1//EN" "http://www.w3.org/Graphics/SVG/1.1/DTD/svg11.dtd">
<svg version="1.1" id="Layer_1" xmlns="http://www.w3.org/2000/svg" xmlns:xlink="http://www.w3.org/1999/xlink" x="0px" y="0px"
	 width="360px" height="360px" viewBox="0 0 360 360" enable-background="new 0 0 360 360" xml:space="preserve">
<g>
	<defs>
		<rect id="SVGID_1_" width="360" height="360"/>
	</defs>
	<clipPath id="SVGID_2_">
		<use xlink:href="#SVGID_1_"  overflow="visible"/>
	</clipPath>
	<path clip-path="url(#SVGID_2_)" d="M71.226,297.216H42.479c-0.031-0.644-0.09-1.271-0.09-1.898
		c-0.004-37.015-0.004-74.029-0.002-111.045c0-3.006,0.009-3.006-3.084-3.006c-4.523,0-9.046-0.047-13.568,0.025
		c-1.497,0.024-1.953-0.517-1.943-1.975c0.055-7.201,0.024-14.402,0.026-21.602c0.001-2.32,0.098-2.428,2.407-2.43
		c9.641-0.006,19.281-0.002,28.922-0.002h1.085c-0.215-1.435-0.555-2.832-0.607-4.239c-0.097-2.662-0.028-5.331-0.028-8.146
		c0.729-0.044,1.302-0.108,1.875-0.109c18.15-0.005,36.3-0.006,54.451-0.002c2.325,0,2.442,0.218,1.949,2.401
		c-0.063,0.283,0.765,1.078,1.219,1.112c1.775,0.133,3.567,0.056,5.352,0.056c4.463,0,8.926-0.01,13.389,0.006
		c1.167,0.003,2.01-0.03,1.462-1.675c-0.422-1.267,0.229-1.931,1.694-1.923c8.212,0.046,16.425,0.012,24.637,0.029
		c1.849,0.004,2.112,0.495,1.515,2.283c-0.388,1.162,0.432,1.28,1.292,1.279c3.213-0.001,6.427,0.001,9.64,0.001
		c3.035,0,6.071,0,9.105-0.001c1.036,0,1.942,0.045,1.412-1.558c-0.448-1.355,0.179-2.046,1.744-2.036
		c8.152,0.052,16.306,0.017,24.458,0.03c1.965,0.003,2.237,0.489,1.724,2.428c-0.072,0.274,0.602,1.06,0.961,1.081
		c1.89,0.111,3.789,0.052,5.733,0.052c-1.408-3.88-0.651-7.731-0.602-11.863c-1.417,0-2.872,0.004-4.327-0.001
		c-2.149-0.007-2.308-0.166-2.274-2.376c0.007-0.468,0.021-0.963,0.176-1.394c0.438-1.213,0.013-1.612-1.216-1.599
		c-3.63,0.04-7.261,0.014-10.891,0.014c-3.605,0-4.008-0.151-4.091-3.658c-0.162-6.84-0.089-13.687-0.029-20.53
		c0.05-5.932,0.299-11.863,0.302-17.795c0.003-5.336-0.23-10.673-0.314-16.01c-0.032-2.02,0.66-3.85,1.867-5.455
		c0.191-0.255,0.729-0.221,1.062-0.402c0.709-0.384,1.752-0.669,2.007-1.271c0.561-1.323,1.498-1.22,2.559-1.219
		c13.151,0.009,26.304,0.013,39.455-0.009c0.999-0.001,1.726,0.14,2.397,1.055c0.497,0.678,1.46,1.273,2.29,1.392
		c1.487,0.213,1.849,0.976,1.838,2.284c-0.028,3.69-0.01,7.379-0.01,11.069c0,16.068,0.001,32.135-0.001,48.203
		c0,2.199-0.126,2.335-2.314,2.342c-3.689,0.013-7.379,0.001-11.068,0.008c-0.58,0.001-1.16,0.05-1.862,0.082
		c0.091,1.091,0.139,2.063,0.256,3.026c0.204,1.662-0.375,2.463-2.167,2.265c-1.059-0.116-2.141-0.02-3.212-0.019
		c-1.03,0.001-0.918,0.385-0.816,1.331c0.304,2.793,0.378,5.626,0.298,8.436c-0.021,0.709-0.954,1.393-1.469,2.088
		c1.875,0,3.987,0.047,6.091-0.06c0.266-0.013,0.736-0.862,0.69-1.278c-0.196-1.798,0.047-2.217,1.755-2.217
		c22.494-0.008,44.989-0.005,67.483,0c0.35,0,0.698,0.05,1.024,0.075c0.857,3.209,0.366,10.884-0.913,12.417h2.035
		c9.462,0,18.924-0.003,28.386,0.001c2.549,0.001,2.574,0.034,2.575,2.621c0.001,7.082-0.043,14.164,0.032,21.244
		c0.018,1.642-0.485,2.18-2.141,2.15c-4.997-0.091-9.997-0.012-14.995-0.046c-1.316-0.009-2.123,0.189-1.506,1.792
		c0.18,0.469,0.041,1.061,0.041,1.597c0.001,36.717,0,73.435,0,110.152v2.399h-28.84v-2.17V184.871c0-0.417-0.028-0.836,0.01-1.25
		c0.22-2.354,0.226-2.354-2.118-2.354H73.321c-2.325,0-2.322,0.001-2.104,2.367c0.032,0.354,0.009,0.714,0.009,1.071
		c0,36.836,0,73.672,0,110.508V297.216z"/>
	<path clip-path="url(#SVGID_2_)" d="M0,188.051V84.938h2.191c63.192,0,126.384,0,189.577,0c2.647,0,2.649,0.003,2.65,2.645
		c0.001,5.236-0.071,10.474,0.039,15.708c0.038,1.828-0.566,2.311-2.347,2.309c-36.534-0.046-73.068-0.034-109.604-0.034
		c-19.576,0-39.152,0.007-58.729-0.015c-1.417-0.002-2.572,0.002-1.855,1.96c0.135,0.368,0.026,0.826,0.026,1.243
		c0,25.467,0.001,50.934,0,76.401c0,2.784-0.115,2.895-2.952,2.896c-5.653,0.001-11.306,0-16.958,0H0z"/>
	<path clip-path="url(#SVGID_2_)" d="M360,85.041v102.912c-0.555,0.032-1.12,0.094-1.686,0.095
		c-5.949,0.007-11.898,0.009-17.849,0.001c-2.086-0.002-2.415-0.316-2.415-2.355c-0.005-25.821-0.007-51.642,0.002-77.464
		c0-2.663,0.032-2.663-2.715-2.663h-80.141h-2.367c-0.053-0.594-0.118-0.994-0.119-1.394c-0.007-5.771,0.021-11.542-0.024-17.313
		c-0.01-1.312,0.311-1.943,1.786-1.942c34.864,0.03,69.729,0.025,104.594,0.03C359.302,84.946,359.537,84.993,360,85.041"/>
</g>
</svg>
