<?xml version="1.0" encoding="utf-8"?>
<!-- Generator: Adobe Illustrator 15.0.0, SVG Export Plug-In . SVG Version: 6.00 Build 0)  -->
<!DOCTYPE svg PUBLIC "-//W3C//DTD SVG 1.1//EN" "http://www.w3.org/Graphics/SVG/1.1/DTD/svg11.dtd">
<svg version="1.1" id="Layer_1" xmlns="http://www.w3.org/2000/svg" xmlns:xlink="http://www.w3.org/1999/xlink" x="0px" y="0px"
	 width="360px" height="360px" viewBox="0 0 360 360" enable-background="new 0 0 360 360" xml:space="preserve">
<g>
	<defs>
		<rect id="SVGID_1_" width="360" height="360"/>
	</defs>
	<clipPath id="SVGID_2_">
		<use xlink:href="#SVGID_1_"  overflow="visible"/>
	</clipPath>
	<path clip-path="url(#SVGID_2_)" d="M360,101.023c0,23.923,0,47.846-0.001,71.769c0,3.652-0.002,3.796-3.616,3.856
		c-5.505,0.09-11.013-0.07-16.519-0.073c-6.21-0.004-12.42,0.067-18.63,0.069c-3.164,0.001-6.328-0.13-9.492-0.112
		c-6.712,0.039-13.423,0.187-20.135,0.195c-5.639,0.007-11.278-0.17-16.917-0.174c-5.76-0.005-11.52,0.128-17.279,0.154
		c-7.16,0.032-14.321,0.087-21.479-0.008c-3.454-0.045-4.282-0.962-4.285-4.382c-0.021-27.857-0.098-55.714,0.061-83.57
		c0.034-6.069-0.033-5.047-5.168-5.515c-5.954-0.541-11.406-2.401-16.741-4.966c-6.51-3.13-11.686-7.796-15.845-13.553
		c-2.808-3.885-4.88-8.195-6.217-12.895c-1.65-5.797-2.75-11.871-6.561-16.829c-3.268-4.252-7.039-7.769-12.162-9.941
		c-6.112-2.591-12.295-2.573-18.415-1.074c-4.63,1.134-8.797,3.805-11.611,7.79c-2.09,2.96-3.594,6.346-5.23,9.607
		c-0.72,1.435,0.303,1.732,1.516,1.723c3.616-0.026,7.234-0.033,10.85-0.034c9.646-0.004,19.291-0.009,28.936,0.003
		c3.433,0.004,3.879,0.455,3.879,3.814c0.003,45.117,0.003,90.234,0.001,135.351c-0.001,3.486-0.315,3.798-3.793,3.819
		c-1.65,0.01-3.3,0.039-4.949-0.003c-1.39-0.036-1.901,0.541-1.845,1.951c0.105,2.598,0.085,5.202,0.056,7.803
		c-0.024,2.192-0.541,2.706-2.692,2.777c-1.204,0.041-2.411,0.014-3.616,0.007c-2.369-0.014-2.528,0.134-2.527,2.427
		c0.006,9.455,0.014,18.91,0.021,28.365c0.002,3.646-0.517,4.187-4.175,4.196c-4.252,0.012-8.505,0.063-12.753-0.061
		c-1.749-0.052-2.193,0.638-2.166,2.226c0.07,4.251,0.065,8.503,0.03,12.755c-0.027,3.106-0.611,3.652-3.665,3.707
		c-2.697,0.049-2.721,0.188-2.581,2.85c0.147,2.783,0.157,5.583,0.05,8.368c-0.09,2.331-0.771,2.87-3.053,2.95
		c-6.036,0.213-6.038,0.213-6.036-5.75c0.001-2.157-0.031-4.315,0.038-6.471c0.045-1.376-0.495-1.917-1.882-1.966
		c-3.85-0.136-4.364-0.588-4.438-4.465c-0.073-3.802,0.07-7.607,0.174-11.411c0.068-2.472-0.14-2.742-2.615-2.741
		c-4.188,0.002-8.376,0.02-12.564,0.015c-3.048-0.002-3.439-0.376-3.44-3.372c-0.006-9.582,0.001-19.164,0.014-28.745
		c0.003-2.907,0.019-2.901-2.799-2.874c-1.332,0.012-2.665,0.025-3.996-0.014c-1.757-0.052-2.701-0.957-2.688-2.75
		c0.018-2.601-0.062-5.209,0.126-7.798c0.11-1.494-0.435-1.972-1.775-1.968c-1.968,0.005-3.934-0.011-5.902-0.019
		c-1.8-0.008-2.685-0.914-2.673-2.713c0.007-0.952-0.001-1.903-0.001-2.855c0-44.356,0-88.711-0.001-133.067
		c0-0.444-0.012-0.889,0.007-1.332c0.093-2.271,0.756-2.964,2.995-3.002c2.22-0.039,4.441-0.011,6.662-0.01
		c10.216,0.003,20.433,0.001,30.649,0.014c2.711,0.003,3.098-0.17,3.641-2.796c1.56-7.546,5.48-13.661,11.229-18.645
		c3.268-2.833,7.124-4.65,11.064-6.427c2.793-1.259,5.524-0.974,8.315-1.094c1.963-0.085,3.94,0.081,5.899-0.037
		c4.184-0.252,7.987,0.705,11.795,2.535c4.231,2.035,8.083,4.5,11.302,7.84c3.747,3.889,6.979,8.199,8.684,13.43
		c1.209,3.71,2.207,7.49,3.458,11.184c2.641,7.795,6.668,14.637,14.064,18.862c2.938,1.678,5.96,3.346,9.147,4.409
		c3.27,1.091,6.78,1.48,10.201,2.087c1.136,0.202,1.938-0.168,1.908-1.635c-0.115-5.77-0.185-11.541-0.205-17.313
		c-0.032-8.63-0.016-17.26-0.007-25.89c0.004-3.415,0.474-3.923,3.804-3.924c40.484-0.009,80.97-0.008,121.454,0
		c3.107,0.001,3.109,0.034,3.109,3.216V101.023z M296.101,100.467v-0.047c16.686,0,33.369-0.012,50.054,0.012
		c2.859,0.005,3.262-0.382,3.259-3.253c-0.021-19.73-0.024-39.46-0.007-59.189c0.002-2.966-0.289-3.319-3.188-3.318
		c-33.496,0.004-66.992,0.004-100.488,0.001c-2.71-0.001-3.069,0.352-3.068,3.063c0.009,19.349,0.014,38.698,0.02,58.048
		c0,0.824-0.034,1.65-0.004,2.473c0.057,1.539,0.806,2.232,2.419,2.229C262.098,100.455,279.1,100.467,296.101,100.467
		 M163.16,162.623v0.038c-1.965,0-3.943-0.133-5.891,0.053c-1.058,0.1-2.319,0.478-3.053,1.183
		c-4.571,4.392-9.035,8.895-13.481,13.415c-0.46,0.467-0.562,1.288-0.831,1.945c0.635,0.199,1.268,0.562,1.905,0.571
		c3.803,0.049,7.612,0.124,11.407-0.054c1.15-0.053,2.525-0.606,3.349-1.396c4.667-4.472,9.207-9.077,13.755-13.671
		c0.344-0.348,0.699-1.109,0.541-1.42c-0.187-0.368-0.92-0.619-1.426-0.636C167.345,162.583,165.251,162.623,163.16,162.623
		 M129.059,162.647v0.017c-2.029,0-4.063-0.079-6.086,0.038c-0.825,0.048-1.846,0.293-2.403,0.834
		c-4.774,4.638-9.473,9.355-14.157,14.086c-0.395,0.399-0.511,1.075-0.756,1.623c0.564,0.199,1.126,0.566,1.692,0.572
		c3.996,0.041,7.995,0.104,11.984-0.062c1.088-0.045,2.391-0.59,3.176-1.343c4.619-4.435,9.127-8.988,13.632-13.54
		c0.387-0.391,0.485-1.067,0.717-1.611c-0.57-0.204-1.135-0.565-1.711-0.586C133.12,162.603,131.089,162.647,129.059,162.647
		 M342.238,134.846c1.644,0,3.287-0.015,4.931,0.005c1.316,0.015,2.032-0.582,2.036-1.92c0.009-2.276,0.002-4.552-0.007-6.827
		c-0.004-1.237-0.639-1.88-1.872-1.882c-3.288-0.003-6.575,0.013-9.862,0.014c-1.531,0.001-2.127,0.795-2.092,2.276
		c0.046,1.959,0.057,3.921-0.012,5.879c-0.059,1.671,0.629,2.488,2.326,2.457C339.203,134.821,340.721,134.843,342.238,134.846
		 M249.454,134.846v-0.011c1.518,0,3.034,0.012,4.552-0.002c1.611-0.016,2.44-0.74,2.368-2.458
		c-0.079-1.894-0.092-3.795-0.012-5.687c0.072-1.72-0.727-2.444-2.357-2.448c-3.097-0.008-6.194-0.01-9.292-0.031
		c-1.297-0.008-2.05,0.547-2.056,1.901c-0.011,2.275-0.02,4.551,0.003,6.826c0.011,1.33,0.742,1.929,2.053,1.914
		C246.293,134.832,247.874,134.846,249.454,134.846 M342.425,155.224v0.014c-1.647,0-3.295-0.009-4.942,0.003
		c-1.398,0.01-2.101,0.738-2.098,2.131c0.003,2.027,0.023,4.055,0.028,6.083c0.004,1.552,0.721,2.327,2.325,2.314
		c3.105-0.026,6.21-0.009,9.315,0.021c1.331,0.012,2.046-0.634,2.082-1.923c0.061-2.216,0.068-4.435,0.051-6.652
		c-0.011-1.283-0.664-2-2.009-1.993C345.594,155.231,344.01,155.224,342.425,155.224 M342.289,119.402
		c1.645,0,3.29-0.004,4.935,0.001c1.237,0.004,1.924-0.638,1.944-1.84c0.039-2.277,0.02-4.555-0.027-6.832
		c-0.026-1.285-0.718-1.967-2.044-1.96c-3.101,0.015-6.2,0.04-9.301,0.018c-1.688-0.012-2.408,0.812-2.392,2.45
		c0.019,1.961-0.007,3.923-0.022,5.884c-0.013,1.59,0.792,2.302,2.352,2.28C339.252,119.381,340.771,119.398,342.289,119.402
		 M286.613,124.217v0.041c-1.646,0-3.292-0.022-4.938,0.007c-1.394,0.025-2.054,0.753-2.031,2.169
		c0.031,2.025,0.036,4.052-0.013,6.077c-0.039,1.631,0.792,2.312,2.315,2.319c3.103,0.015,6.205-0.003,9.308,0.022
		c1.536,0.013,2.164-0.751,2.142-2.233c-0.032-2.089-0.038-4.179-0.009-6.268c0.022-1.537-0.72-2.179-2.216-2.142
		C289.653,124.246,288.133,124.217,286.613,124.217 M286.644,119.392v0.011c1.584,0,3.168,0.002,4.751-0.001
		c1.226-0.002,1.934-0.624,1.952-1.84c0.034-2.279,0.016-4.56-0.031-6.839c-0.026-1.298-0.744-1.957-2.062-1.95
		c-3.04,0.017-6.081,0.032-9.121,0.033c-1.647,0.001-2.446,0.807-2.446,2.45c0.001,1.901-0.004,3.802-0.04,5.701
		c-0.032,1.68,0.805,2.44,2.437,2.436C283.604,119.389,285.124,119.392,286.644,119.392 M249.343,165.793v-0.04
		c1.456,0,2.912-0.02,4.367,0.005c1.838,0.031,2.65-0.873,2.621-2.682c-0.028-1.771-0.019-3.544,0.031-5.315
		c0.048-1.668-0.765-2.494-2.379-2.512c-3.101-0.036-6.202-0.017-9.303-0.029c-1.344-0.005-1.993,0.718-2.008,1.993
		c-0.023,2.151-0.002,4.304,0.035,6.455c0.025,1.458,0.743,2.196,2.27,2.137C246.431,165.749,247.888,165.793,249.343,165.793
		 M323.576,134.836v0.007c1.585,0,3.168,0.006,4.75-0.002c1.375-0.007,2.139-0.663,2.141-2.082c0.003-2.153-0.009-4.305-0.008-6.457
		c0-1.302-0.626-2.056-1.94-2.066c-3.165-0.025-6.331-0.032-9.496,0.019c-1.45,0.024-2.155,0.832-2.125,2.327
		c0.041,1.962,0.031,3.926-0.008,5.888c-0.031,1.612,0.813,2.322,2.318,2.359C320.664,134.865,322.121,134.836,323.576,134.836
		 M305.21,124.27c0-0.019-0.001-0.039-0.001-0.058c-1.581,0-3.163,0.01-4.745-0.003c-1.41-0.012-2.099,0.649-2.086,2.08
		c0.019,2.15-0.004,4.301-0.007,6.452c-0.001,1.156,0.419,2.054,1.7,2.07c3.353,0.04,6.707,0.04,10.06-0.024
		c1.351-0.026,2.042-0.826,2.022-2.226c-0.026-2.023-0.036-4.048,0.003-6.071c0.026-1.413-0.643-2.161-2.013-2.207
		C308.501,124.228,306.854,124.27,305.21,124.27 M249.296,108.81v-0.051c-1.453,0-2.907,0.024-4.359-0.008
		c-1.396-0.029-2.177,0.625-2.21,2.006c-0.055,2.273-0.164,4.56,0.039,6.815c0.061,0.655,1.084,1.713,1.708,1.744
		c3.276,0.165,6.567,0.096,9.854,0.032c1.365-0.027,2.033-0.863,2.023-2.233c-0.015-1.958-0.038-3.917-0.03-5.876
		c0.006-1.676-0.882-2.412-2.475-2.426C252.329,108.8,250.812,108.81,249.296,108.81 M304.965,119.41v-0.023
		c1.581,0,3.162,0.021,4.742-0.006c1.6-0.026,2.461-0.811,2.436-2.474c-0.026-1.769,0.007-3.54-0.043-5.308
		c-0.062-2.148-0.613-2.744-2.706-2.789c-2.907-0.063-5.817-0.029-8.725-0.055c-1.386-0.012-2.165,0.637-2.2,2.027
		c-0.057,2.211-0.086,4.425-0.068,6.636c0.01,1.276,0.68,1.995,2.013,1.992C301.931,119.408,303.447,119.41,304.965,119.41
		 M286.615,165.748v0.029c1.521,0,3.043-0.02,4.564,0.006c1.304,0.023,2.089-0.56,2.125-1.876c0.064-2.28,0.176-4.574-0.025-6.836
		c-0.058-0.655-1.087-1.716-1.713-1.748c-3.287-0.166-6.588-0.088-9.883-0.038c-1.27,0.02-2.009,0.742-2.017,2.044
		c-0.012,2.09,0.003,4.183,0.052,6.274c0.034,1.483,0.885,2.152,2.333,2.146C283.572,165.743,285.094,165.748,286.615,165.748
		 M323.74,119.404c1.52,0,3.038,0.005,4.557-0.001c1.397-0.005,2.125-0.754,2.144-2.111c0.027-2.087,0.004-4.176-0.041-6.264
		c-0.03-1.424-0.746-2.252-2.235-2.254c-2.91-0.003-5.821-0.006-8.731,0.018c-1.601,0.013-2.472,0.821-2.486,2.459
		c-0.017,1.898-0.021,3.796-0.039,5.694c-0.016,1.667,0.872,2.429,2.467,2.452C320.83,119.418,322.286,119.401,323.74,119.404
		 M305.135,155.256v-0.029c-1.582,0-3.164-0.01-4.745,0.003c-1.203,0.01-1.957,0.619-1.975,1.833
		c-0.033,2.276-0.004,4.554,0.067,6.83c0.036,1.177,0.692,1.891,1.926,1.891c3.101,0.001,6.2-0.012,9.3-0.044
		c1.528-0.015,2.346-0.808,2.371-2.352c0.031-1.96,0.054-3.92,0.06-5.881c0.005-1.496-0.854-2.195-2.26-2.239
		C308.299,155.219,306.717,155.256,305.135,155.256 M323.99,155.223v0.008c-1.583,0-3.167-0.03-4.749,0.009
		c-1.522,0.037-2.336,0.839-2.33,2.391c0.006,1.9,0.009,3.8,0.044,5.699c0.03,1.619,0.881,2.439,2.506,2.441
		c2.85,0.004,5.7-0.008,8.549,0.021c1.581,0.016,2.359-0.776,2.396-2.298c0.049-2.026,0.062-4.053,0.046-6.079
		c-0.014-1.472-0.819-2.191-2.281-2.191C326.776,155.223,325.384,155.223,323.99,155.223 M268.281,124.23
		c-1.645,0-3.289-0.026-4.933,0.008c-1.449,0.03-2.191,0.754-2.164,2.267c0.037,2.023,0.021,4.048-0.009,6.071
		c-0.021,1.514,0.767,2.235,2.198,2.25c3.099,0.032,6.198,0.031,9.297,0.001c1.459-0.015,2.182-0.797,2.16-2.285
		c-0.029-2.022-0.049-4.046-0.009-6.067c0.03-1.529-0.732-2.217-2.177-2.244C271.191,124.203,269.736,124.225,268.281,124.23
		 M267.926,119.402c1.522,0,3.045,0.01,4.568-0.003c1.442-0.012,2.295-0.731,2.315-2.193c0.028-2.028-0.024-4.057-0.064-6.085
		c-0.03-1.54-0.824-2.338-2.38-2.339c-2.917-0.001-5.835-0.014-8.753,0.009c-1.53,0.011-2.352,0.811-2.373,2.36
		c-0.025,1.966-0.038,3.932-0.043,5.898c-0.005,1.565,0.812,2.335,2.354,2.35C265.009,119.413,266.467,119.402,267.926,119.402
		 M87.319,170.491h-0.022c0,2.093-0.047,4.187,0.035,6.277c0.019,0.481,0.378,1.094,0.773,1.358
		c0.219,0.146,0.948-0.193,1.258-0.503c4.264-4.254,8.504-8.532,12.716-12.836c0.354-0.362,0.471-0.955,0.698-1.441
		c-0.542-0.239-1.08-0.675-1.625-0.683c-3.868-0.059-7.737-0.01-11.606-0.039c-1.504-0.012-2.242,0.643-2.231,2.158
		C87.33,166.685,87.319,168.588,87.319,170.491 M267.931,155.23c-1.454,0-2.909-0.023-4.363,0.006
		c-1.504,0.03-2.376,0.757-2.371,2.335c0.005,1.897,0.025,3.794,0.034,5.691c0.009,1.73,0.885,2.531,2.601,2.52
		c2.783-0.019,5.566-0.032,8.348,0.008c1.757,0.025,2.569-0.834,2.595-2.523c0.03-1.959,0.06-3.919,0.041-5.878
		c-0.013-1.376-0.794-2.105-2.141-2.144C271.094,155.199,269.512,155.234,267.931,155.23 M342.223,150.281v0.048
		c1.584,0,3.17-0.036,4.753,0.01c1.522,0.044,2.224-0.649,2.215-2.157c-0.013-2.092,0.002-4.184,0.019-6.276
		c0.012-1.389-0.589-2.132-2.047-2.121c-3.233,0.022-6.466,0.015-9.699,0.013c-1.404-0.001-2.107,0.662-2.09,2.093
		c0.024,2.091,0.038,4.184,0.022,6.275c-0.01,1.419,0.66,2.116,2.072,2.115C339.053,150.281,340.638,150.281,342.223,150.281
		 M249.37,139.82v-0.028c-1.583,0-3.167,0.009-4.751-0.003c-1.233-0.01-1.934,0.575-1.947,1.814
		c-0.026,2.279-0.125,4.572,0.086,6.833c0.063,0.675,1.036,1.78,1.631,1.806c3.349,0.15,6.71,0.061,10.065-0.014
		c1.308-0.03,1.885-0.85,1.878-2.141c-0.01-2.027-0.006-4.055,0.029-6.081c0.024-1.421-0.682-2.139-2.051-2.175
		C252.665,139.787,251.018,139.82,249.37,139.82 M286.656,150.274v0.031c1.518,0,3.034-0.018,4.551,0.005
		c1.385,0.022,2.154-0.564,2.155-2.01c0.001-2.212,0.024-4.424,0.014-6.636c-0.006-1.226-0.642-1.87-1.886-1.868
		c-3.286,0.006-6.573-0.003-9.859,0.031c-1.287,0.013-1.986,0.701-1.983,2.022c0.005,2.086,0.032,4.171,0.023,6.257
		c-0.007,1.525,0.796,2.17,2.245,2.168C283.496,150.272,285.076,150.274,286.656,150.274 M305.089,139.819v-0.027
		c-1.586,0-3.173,0.003-4.759-0.001c-1.232-0.003-1.928,0.596-1.936,1.836c-0.014,2.284-0.106,4.58,0.116,6.843
		c0.065,0.669,1.06,1.75,1.668,1.778c3.29,0.153,6.593,0.059,9.891-0.002c1.368-0.025,2.07-0.774,2.06-2.187
		c-0.016-2.029,0.001-4.058,0.023-6.088c0.017-1.442-0.783-2.097-2.116-2.139C308.389,139.779,306.738,139.819,305.089,139.819
		 M323.688,150.291v0.047c1.454,0,2.907-0.016,4.36,0.004c1.532,0.021,2.394-0.627,2.393-2.239
		c-0.001-2.086,0.029-4.172,0.022-6.258c-0.005-1.289-0.656-2.03-1.97-2.037c-3.161-0.018-6.322-0.028-9.482,0.012
		c-1.345,0.017-2.113,0.731-2.108,2.14c0.008,2.022,0.03,4.045,0.023,6.068c-0.004,1.495,0.778,2.219,2.212,2.254
		C320.654,150.32,322.172,150.291,323.688,150.291 M267.973,150.293v0.008c1.521,0,3.041,0.007,4.562-0.002
		c1.568-0.008,2.302-0.806,2.282-2.376c-0.025-1.962-0.02-3.926,0.007-5.888c0.02-1.393-0.623-2.197-2.015-2.215
		c-3.168-0.041-6.336-0.037-9.504-0.006c-1.353,0.012-2.124,0.709-2.117,2.128c0.011,2.028,0.039,4.055,0.024,6.082
		c-0.012,1.502,0.748,2.233,2.198,2.262C264.931,150.317,266.451,150.293,267.973,150.293"/>
	<path clip-path="url(#SVGID_2_)" d="M173.32,345.922c-56.286,0-112.572-0.018-168.857,0.045c-3.216,0.004-4.465-1.183-4.463-4.475
		C0.058,259.57,0.046,177.648,0.046,95.726c0-3.214,0.591-3.826,3.911-3.827c20.877-0.009,41.754-0.009,62.632,0.002
		c3.681,0.002,3.995,0.356,3.993,4.033c-0.003,7.425,0.004,14.849,0,22.273c-0.002,2.932-0.454,3.431-3.429,3.436
		c-12.564,0.017-25.129,0.008-37.693-0.009c-2.575-0.003-2.66,0.066-2.66,2.653c0,63.583,0,127.167-0.04,190.75
		c-0.001,1.65,0.499,2.383,2.157,2.259c0.568-0.042,1.142-0.004,1.713-0.004h283.078c0.444,0,0.889,0.004,1.333-0.001
		c2.445-0.027,2.555-0.168,2.324-2.662c-0.076-0.819-0.083-1.646-0.083-2.471c-0.005-40.612-0.005-81.224-0.005-121.836
		c0-3.79,0.634-4.437,4.429-4.443c6.853-0.011,13.706-0.019,20.56,0.005c3.267,0.012,3.887,0.661,3.887,3.924
		c0.004,50.574,0.002,101.149,0.002,151.724c0,0.317,0.007,0.636-0.009,0.953c-0.134,2.729-0.843,3.431-3.588,3.432
		c-24.24,0.007-48.48,0.005-72.721,0.005C237.664,345.921,205.492,345.921,173.32,345.922"/>
	<path clip-path="url(#SVGID_2_)" d="M172.333,306.575c-43.015-0.001-86.031-0.001-129.046-0.002c-0.571,0-1.144,0.012-1.712-0.036
		c-2.254-0.189-3.013-0.979-3.02-3.277c-0.02-6.915-0.006-13.83-0.006-20.746c0-5.139-0.021-10.278,0.007-15.417
		c0.018-3.288,0.66-3.921,3.882-3.921c22.079-0.004,44.158,0.012,66.236-0.022c1.752-0.003,3.104,0.441,4.42,1.685
		c3.41,3.22,6.936,6.322,10.516,9.354c0.745,0.631,1.901,0.979,2.902,1.065c1.889,0.162,3.826-0.148,5.7,0.083
		c2.554,0.316,4.343-0.761,6.05-2.441c2.62-2.581,5.379-5.021,8.006-7.594c1.535-1.505,3.204-2.174,5.421-2.171
		c49.931,0.055,99.861,0.043,149.793,0.043c0.443,0,0.888-0.003,1.332,0.008c2.777,0.062,3.375,0.62,3.384,3.377
		c0.024,7.359,0.012,14.72,0.013,22.079c0.001,4.948,0.016,9.897-0.006,14.846c-0.011,2.27-0.498,2.788-2.734,3.014
		c-0.756,0.076-1.521,0.072-2.281,0.072C258.237,306.575,215.286,306.575,172.333,306.575"/>
	<path clip-path="url(#SVGID_2_)" d="M205.93,91.9c4.568-0.001,9.137-0.021,13.705,0.008c2.438,0.015,2.896,0.476,2.9,2.922
		c0.019,7.995,0.021,15.989-0.002,23.985c-0.006,2.302-0.517,2.824-2.814,2.83c-9.2,0.024-18.4,0.026-27.601,0.003
		c-2.596-0.007-3.269-0.706-3.273-3.308c-0.017-7.741-0.018-15.482,0.002-23.223c0.006-2.455,0.707-3.181,3.187-3.204
		C196.666,91.871,201.298,91.9,205.93,91.9"/>
	<path clip-path="url(#SVGID_2_)" d="M176.24,241.911c-2.613,0.035-4.086-1.462-4.085-4.151c0-2.28,1.79-4.15,4.017-4.196
		c2.072-0.043,4.243,2.121,4.302,4.288C180.527,239.771,178.324,241.883,176.24,241.911"/>
	<path clip-path="url(#SVGID_2_)" d="M88.096,237.734c0.003,2.424-1.767,4.198-4.167,4.177c-2.178-0.02-4.107-1.915-4.158-4.084
		c-0.048-2.029,2.043-4.229,4.056-4.268C86.02,233.518,88.094,235.547,88.096,237.734"/>
	<path clip-path="url(#SVGID_2_)" d="M109.287,248.46c0.039,2.652-1.296,4.035-3.917,4.059c-2.268,0.021-4.301-1.792-4.363-3.89
		c-0.059-1.969,2.255-4.367,4.25-4.404C107.288,244.187,109.253,246.253,109.287,248.46"/>
	<path clip-path="url(#SVGID_2_)" d="M149.245,255.97c0.012,2.223-1.849,4.139-4.055,4.176c-2.293,0.038-4.29-1.912-4.274-4.174
		c0.016-2.174,1.931-4.034,4.182-4.061C147.328,251.886,149.232,253.75,149.245,255.97"/>
	<path clip-path="url(#SVGID_2_)" d="M154.539,252.526c-2.44,0.029-4.164-1.604-4.157-3.94c0.008-2.214,2.099-4.393,4.193-4.368
		c2.027,0.024,3.832,2.074,3.875,4.401C158.494,251.019,157.014,252.497,154.539,252.526"/>
	<path clip-path="url(#SVGID_2_)" d="M114.657,251.869c2.061-0.031,4.225,2.046,4.255,4.085c0.03,2.039-2.017,4.094-4.169,4.183
		c-2.155,0.09-3.873-1.648-3.949-3.994C110.716,253.728,112.364,251.904,114.657,251.869"/>
	<path clip-path="url(#SVGID_2_)" d="M168.964,242.167c-0.05,2.11-2.167,4.276-4.113,4.21c-1.905-0.063-4.135-2.416-4.096-4.318
		c0.042-2.115,2.093-3.988,4.31-3.936S169.017,239.974,168.964,242.167"/>
	<path clip-path="url(#SVGID_2_)" d="M99.125,242.146c0.006,2.183-1.795,4.159-3.855,4.23c-1.937,0.068-4.245-2.209-4.241-4.186
		c0.004-2.214,1.969-4.121,4.198-4.074C97.521,238.165,99.119,239.817,99.125,242.146"/>
	<path clip-path="url(#SVGID_2_)" fill="#FFFFFF" d="M296.101,99.852c-17.001,0-34.003-0.012-51.004,0.019
		c-1.613,0.003-2.362-0.69-2.419-2.229c-0.03-0.823,0.004-1.649,0.004-2.473c-0.006-19.349-0.011-38.699-0.02-58.048
		c-0.001-2.711,0.358-3.063,3.068-3.063c33.496,0.003,66.992,0.003,100.488-0.001c2.898,0,3.189,0.353,3.188,3.318
		c-0.018,19.729-0.015,39.459,0.008,59.189c0.002,2.871-0.4,3.258-3.26,3.253c-16.685-0.024-33.369-0.011-50.054-0.011V99.852z"/>
	<path clip-path="url(#SVGID_2_)" fill="#FFFFFF" d="M163.16,162.623c2.092,0,4.185-0.04,6.274,0.029
		c0.506,0.016,1.239,0.267,1.427,0.635c0.157,0.311-0.197,1.072-0.541,1.42c-4.548,4.594-9.089,9.199-13.755,13.671
		c-0.825,0.791-2.2,1.344-3.349,1.397c-3.796,0.177-7.605,0.102-11.408,0.053c-0.637-0.008-1.27-0.372-1.904-0.571
		c0.268-0.657,0.37-1.477,0.831-1.945c4.445-4.52,8.909-9.023,13.48-13.414c0.735-0.706,1.996-1.083,3.054-1.184
		c1.948-0.185,3.926-0.053,5.891-0.053V162.623z"/>
	<path clip-path="url(#SVGID_2_)" fill="#FFFFFF" d="M129.059,162.647c2.03,0,4.061-0.044,6.087,0.028
		c0.577,0.021,1.142,0.382,1.711,0.586c-0.232,0.544-0.33,1.22-0.716,1.611c-4.506,4.552-9.013,9.105-13.633,13.54
		c-0.784,0.753-2.087,1.298-3.175,1.343c-3.989,0.166-7.989,0.103-11.984,0.062c-0.566-0.006-1.129-0.373-1.693-0.572
		c0.246-0.548,0.361-1.224,0.757-1.623c4.683-4.731,9.382-9.448,14.156-14.086c0.557-0.541,1.578-0.786,2.404-0.834
		c2.023-0.117,4.057-0.038,6.086-0.038V162.647z"/>
	<path clip-path="url(#SVGID_2_)" fill="#FFFFFF" d="M342.238,134.229c-1.518-0.001-3.035-0.023-4.552,0.004
		c-1.697,0.031-2.385-0.787-2.326-2.458c0.068-1.957,0.058-3.919,0.012-5.878c-0.035-1.481,0.561-2.275,2.092-2.276
		c3.287-0.001,6.574-0.017,9.862-0.014c1.233,0.001,1.868,0.644,1.872,1.881c0.009,2.276,0.016,4.552,0.007,6.827
		c-0.005,1.338-0.72,1.936-2.036,1.92C345.525,134.216,343.882,134.231,342.238,134.229"/>
	<path clip-path="url(#SVGID_2_)" fill="#FFFFFF" d="M249.454,134.23c-1.58,0-3.161-0.014-4.741,0.004
		c-1.311,0.016-2.042-0.584-2.054-1.914c-0.021-2.275-0.013-4.55-0.002-6.826c0.006-1.354,0.759-1.909,2.056-1.901
		c3.098,0.021,6.195,0.024,9.292,0.032c1.631,0.004,2.429,0.727,2.357,2.447c-0.08,1.892-0.067,3.794,0.012,5.687
		c0.072,1.719-0.757,2.443-2.368,2.458c-1.518,0.014-3.034,0.003-4.552,0.003V134.23z"/>
	<path clip-path="url(#SVGID_2_)" fill="#FFFFFF" d="M342.425,155.224c1.585,0,3.169,0.007,4.753-0.002
		c1.345-0.007,1.998,0.71,2.009,1.993c0.018,2.217,0.009,4.436-0.051,6.652c-0.036,1.289-0.751,1.935-2.082,1.923
		c-3.105-0.03-6.21-0.047-9.315-0.021c-1.604,0.013-2.321-0.762-2.325-2.315c-0.005-2.027-0.025-4.055-0.028-6.083
		c-0.003-1.393,0.699-2.12,2.098-2.13c1.647-0.012,3.295-0.003,4.942-0.003V155.224z"/>
	<path clip-path="url(#SVGID_2_)" fill="#FFFFFF" d="M342.289,118.785c-1.519-0.002-3.037-0.019-4.556,0.003
		c-1.56,0.022-2.365-0.69-2.352-2.28c0.016-1.961,0.041-3.923,0.022-5.884c-0.017-1.638,0.703-2.462,2.392-2.45
		c3.101,0.022,6.2-0.003,9.301-0.018c1.326-0.007,2.018,0.675,2.044,1.961c0.047,2.276,0.066,4.554,0.027,6.831
		c-0.021,1.202-0.707,1.844-1.944,1.84C345.579,118.783,343.934,118.787,342.289,118.785"/>
	<path clip-path="url(#SVGID_2_)" fill="#FFFFFF" d="M286.613,123.602c1.52,0,3.04,0.029,4.559-0.008
		c1.496-0.037,2.237,0.604,2.216,2.142c-0.029,2.089-0.023,4.178,0.009,6.267c0.022,1.483-0.605,2.246-2.142,2.234
		c-3.103-0.025-6.204-0.008-9.308-0.022c-1.523-0.008-2.355-0.689-2.315-2.32c0.049-2.024,0.045-4.051,0.013-6.076
		c-0.022-1.416,0.638-2.145,2.032-2.169c1.645-0.029,3.29-0.007,4.937-0.007V123.602z"/>
	<path clip-path="url(#SVGID_2_)" fill="#FFFFFF" d="M286.644,118.776c-1.52,0-3.04-0.003-4.561,0.001
		c-1.631,0.004-2.469-0.755-2.437-2.436c0.036-1.899,0.041-3.8,0.04-5.7c0-1.644,0.799-2.45,2.446-2.45
		c3.04-0.002,6.081-0.017,9.121-0.033c1.317-0.007,2.036,0.652,2.062,1.949c0.047,2.279,0.065,4.56,0.031,6.839
		c-0.019,1.216-0.727,1.839-1.952,1.841c-1.583,0.002-3.167,0-4.751,0V118.776z"/>
	<path clip-path="url(#SVGID_2_)" fill="#FFFFFF" d="M249.343,165.793c-1.455,0-2.912-0.044-4.365,0.012
		c-1.527,0.059-2.244-0.679-2.27-2.137c-0.037-2.151-0.059-4.304-0.035-6.455c0.015-1.275,0.664-1.998,2.008-1.993
		c3.101,0.012,6.202-0.007,9.303,0.029c1.614,0.018,2.426,0.844,2.38,2.512c-0.051,1.771-0.061,3.544-0.032,5.315
		c0.029,1.809-0.783,2.713-2.621,2.682c-1.455-0.025-2.911-0.005-4.367-0.005V165.793z"/>
	<path clip-path="url(#SVGID_2_)" fill="#FFFFFF" d="M323.577,134.221c-1.456,0-2.913,0.028-4.369-0.008
		c-1.505-0.037-2.35-0.747-2.318-2.359c0.039-1.962,0.049-3.925,0.008-5.887c-0.03-1.495,0.675-2.303,2.125-2.327
		c3.165-0.052,6.331-0.044,9.495-0.02c1.315,0.011,1.941,0.765,1.941,2.066c-0.001,2.153,0.011,4.305,0.008,6.458
		c-0.002,1.418-0.767,2.075-2.141,2.081c-1.583,0.008-3.166,0.002-4.749,0.002V134.221z"/>
	<path clip-path="url(#SVGID_2_)" fill="#FFFFFF" d="M305.21,123.655c1.646,0,3.291-0.042,4.934,0.013
		c1.37,0.046,2.039,0.794,2.013,2.207c-0.039,2.023-0.029,4.048-0.003,6.071c0.02,1.4-0.672,2.2-2.022,2.226
		c-3.353,0.064-6.707,0.064-10.06,0.024c-1.281-0.016-1.701-0.915-1.7-2.07c0.003-2.151,0.025-4.302,0.007-6.452
		c-0.013-1.431,0.676-2.092,2.086-2.08c1.582,0.013,3.164,0.003,4.745,0.003C305.209,123.616,305.21,123.635,305.21,123.655"/>
	<path clip-path="url(#SVGID_2_)" fill="#FFFFFF" d="M249.296,108.195c1.517,0,3.033-0.011,4.55,0.002
		c1.593,0.015,2.481,0.75,2.475,2.426c-0.008,1.959,0.016,3.918,0.03,5.877c0.01,1.369-0.659,2.206-2.024,2.233
		c-3.285,0.064-6.576,0.133-9.853-0.032c-0.624-0.032-1.648-1.089-1.708-1.744c-0.203-2.255-0.094-4.542-0.039-6.815
		c0.033-1.382,0.813-2.036,2.21-2.006c1.452,0.032,2.906,0.007,4.359,0.007V108.195z"/>
	<path clip-path="url(#SVGID_2_)" fill="#FFFFFF" d="M304.965,118.794c-1.518,0-3.034-0.002-4.552,0
		c-1.333,0.003-2.003-0.715-2.013-1.991c-0.018-2.212,0.012-4.426,0.068-6.637c0.035-1.39,0.814-2.039,2.2-2.026
		c2.908,0.025,5.816-0.009,8.725,0.054c2.092,0.045,2.645,0.641,2.706,2.789c0.05,1.769,0.017,3.539,0.043,5.309
		c0.025,1.663-0.836,2.447-2.436,2.474c-1.58,0.026-3.161,0.005-4.742,0.005V118.794z"/>
	<path clip-path="url(#SVGID_2_)" fill="#FFFFFF" d="M286.615,165.748c-1.521,0-3.043-0.005-4.563,0.001
		c-1.448,0.007-2.299-0.662-2.333-2.146c-0.049-2.091-0.063-4.183-0.052-6.274c0.008-1.302,0.747-2.024,2.017-2.043
		c3.295-0.051,6.596-0.128,9.883,0.038c0.626,0.031,1.654,1.092,1.713,1.747c0.201,2.262,0.089,4.557,0.025,6.837
		c-0.036,1.315-0.821,1.899-2.125,1.876c-1.521-0.027-3.044-0.006-4.564-0.006V165.748z"/>
	<path clip-path="url(#SVGID_2_)" fill="#FFFFFF" d="M323.74,118.788c-1.455-0.002-2.91,0.015-4.366-0.006
		c-1.595-0.023-2.482-0.785-2.467-2.451c0.019-1.898,0.022-3.797,0.039-5.695c0.015-1.638,0.886-2.446,2.486-2.459
		c2.91-0.024,5.821-0.021,8.731-0.018c1.489,0.002,2.204,0.83,2.235,2.255c0.045,2.087,0.068,4.176,0.041,6.263
		c-0.019,1.358-0.746,2.106-2.144,2.111C326.778,118.793,325.26,118.789,323.74,118.788"/>
	<path clip-path="url(#SVGID_2_)" fill="#FFFFFF" d="M305.135,155.256c1.582,0,3.164-0.038,4.744,0.011
		c1.405,0.044,2.265,0.743,2.26,2.24c-0.006,1.96-0.028,3.921-0.06,5.881c-0.025,1.543-0.843,2.336-2.371,2.352
		c-3.1,0.031-6.199,0.044-9.3,0.044c-1.233-0.001-1.89-0.715-1.926-1.892c-0.071-2.275-0.101-4.553-0.067-6.83
		c0.018-1.214,0.771-1.822,1.975-1.832c1.581-0.014,3.163-0.003,4.745-0.003V155.256z"/>
	<path clip-path="url(#SVGID_2_)" fill="#FFFFFF" d="M323.99,155.223c1.394,0,2.786,0,4.18,0c1.462,0.001,2.268,0.72,2.28,2.192
		c0.017,2.026,0.004,4.053-0.045,6.079c-0.037,1.521-0.814,2.313-2.396,2.297c-2.85-0.028-5.699-0.016-8.549-0.02
		c-1.625-0.003-2.476-0.822-2.506-2.441c-0.035-1.899-0.038-3.799-0.045-5.699c-0.005-1.553,0.809-2.354,2.331-2.391
		c1.582-0.039,3.166-0.009,4.749-0.009V155.223z"/>
	<path clip-path="url(#SVGID_2_)" fill="#FFFFFF" d="M268.281,123.612c1.455-0.003,2.91-0.024,4.364,0.003
		c1.444,0.027,2.207,0.716,2.177,2.245c-0.04,2.021-0.021,4.044,0.009,6.066c0.021,1.489-0.701,2.27-2.16,2.285
		c-3.099,0.031-6.198,0.032-9.297-0.001c-1.432-0.015-2.22-0.736-2.198-2.25c0.029-2.023,0.045-4.047,0.009-6.07
		c-0.027-1.513,0.715-2.238,2.164-2.268C264.992,123.589,266.636,123.614,268.281,123.612"/>
	<path clip-path="url(#SVGID_2_)" fill="#FFFFFF" d="M267.926,118.787c-1.459,0-2.917,0.011-4.376-0.003
		c-1.541-0.015-2.358-0.785-2.353-2.35c0.005-1.966,0.017-3.932,0.042-5.898c0.021-1.549,0.843-2.348,2.374-2.36
		c2.916-0.023,5.835-0.01,8.752-0.009c1.556,0.001,2.35,0.799,2.38,2.339c0.039,2.028,0.093,4.057,0.064,6.085
		c-0.021,1.463-0.873,2.181-2.316,2.193C270.971,118.796,269.448,118.787,267.926,118.787"/>
	<path clip-path="url(#SVGID_2_)" fill="#FFFFFF" d="M87.318,170.491c0-1.903,0.011-3.806-0.003-5.708
		c-0.012-1.516,0.727-2.17,2.231-2.159c3.868,0.029,7.737-0.02,11.605,0.039c0.545,0.009,1.084,0.445,1.625,0.683
		c-0.227,0.486-0.344,1.079-0.698,1.441c-4.212,4.304-8.452,8.582-12.716,12.836c-0.31,0.31-1.039,0.65-1.257,0.504
		c-0.395-0.264-0.755-0.878-0.774-1.359c-0.081-2.09-0.034-4.184-0.034-6.277H87.318z"/>
	<path clip-path="url(#SVGID_2_)" fill="#FFFFFF" d="M267.931,155.232c1.581,0.002,3.163-0.033,4.743,0.013
		c1.347,0.039,2.128,0.768,2.141,2.144c0.019,1.959-0.011,3.919-0.041,5.878c-0.025,1.689-0.838,2.548-2.595,2.523
		c-2.781-0.04-5.564-0.027-8.348-0.008c-1.716,0.011-2.592-0.79-2.601-2.52c-0.009-1.897-0.028-3.794-0.034-5.691
		c-0.005-1.578,0.867-2.305,2.371-2.335C265.021,155.207,266.477,155.23,267.931,155.232"/>
	<path clip-path="url(#SVGID_2_)" fill="#FFFFFF" d="M342.223,150.281c-1.585,0-3.17,0-4.755,0
		c-1.412,0.001-2.082-0.696-2.072-2.115c0.016-2.092,0.002-4.184-0.022-6.276c-0.018-1.43,0.686-2.093,2.09-2.092
		c3.233,0.002,6.466,0.009,9.699-0.014c1.458-0.01,2.059,0.733,2.047,2.122c-0.017,2.091-0.031,4.184-0.019,6.275
		c0.009,1.509-0.692,2.202-2.215,2.158c-1.583-0.046-3.169-0.011-4.753-0.011V150.281z"/>
	<path clip-path="url(#SVGID_2_)" fill="#FFFFFF" d="M249.37,139.205c1.647,0,3.295-0.033,4.94,0.01
		c1.369,0.036,2.075,0.755,2.051,2.176c-0.035,2.026-0.039,4.054-0.029,6.081c0.007,1.291-0.57,2.11-1.878,2.14
		c-3.355,0.076-6.717,0.164-10.065,0.015c-0.595-0.026-1.567-1.131-1.631-1.806c-0.211-2.262-0.112-4.554-0.086-6.834
		c0.014-1.239,0.714-1.823,1.947-1.814c1.584,0.012,3.168,0.003,4.751,0.003V139.205z"/>
	<path clip-path="url(#SVGID_2_)" fill="#FFFFFF" d="M286.656,149.659c-1.58,0-3.16-0.001-4.74,0
		c-1.449,0.002-2.252-0.643-2.245-2.168c0.008-2.086-0.019-4.171-0.023-6.257c-0.003-1.321,0.696-2.009,1.983-2.022
		c3.286-0.034,6.573-0.025,9.859-0.031c1.244-0.001,1.88,0.642,1.886,1.868c0.01,2.212-0.013,4.424-0.014,6.636
		c-0.001,1.446-0.771,2.032-2.155,2.011c-1.517-0.024-3.033-0.006-4.551-0.006V149.659z"/>
	<path clip-path="url(#SVGID_2_)" fill="#FFFFFF" d="M305.089,139.204c1.649,0,3.3-0.04,4.947,0.013
		c1.332,0.042,2.133,0.697,2.116,2.139c-0.022,2.03-0.039,4.059-0.023,6.088c0.011,1.413-0.691,2.162-2.06,2.187
		c-3.298,0.061-6.601,0.155-9.891,0.002c-0.608-0.028-1.602-1.109-1.668-1.778c-0.223-2.263-0.13-4.559-0.116-6.842
		c0.008-1.241,0.703-1.84,1.936-1.837c1.586,0.004,3.173,0.001,4.759,0.001V139.204z"/>
	<path clip-path="url(#SVGID_2_)" fill="#FFFFFF" d="M323.688,149.675c-1.517,0-3.034,0.029-4.55-0.008
		c-1.434-0.036-2.216-0.759-2.212-2.255c0.007-2.022-0.016-4.045-0.023-6.068c-0.005-1.408,0.765-2.123,2.108-2.14
		c3.16-0.04,6.322-0.029,9.481-0.011c1.314,0.007,1.967,0.747,1.971,2.037c0.007,2.085-0.023,4.171-0.022,6.257
		c0.001,1.612-0.86,2.261-2.393,2.24c-1.453-0.02-2.906-0.005-4.36-0.005V149.675z"/>
	<path clip-path="url(#SVGID_2_)" fill="#FFFFFF" d="M267.973,149.678c-1.521,0-3.042,0.024-4.562-0.007
		c-1.45-0.03-2.21-0.76-2.198-2.262c0.015-2.027-0.014-4.055-0.024-6.082c-0.007-1.42,0.765-2.116,2.117-2.129
		c3.168-0.03,6.336-0.034,9.504,0.007c1.392,0.018,2.034,0.822,2.015,2.214c-0.026,1.963-0.032,3.926-0.007,5.889
		c0.02,1.57-0.714,2.368-2.282,2.376c-1.521,0.008-3.041,0.002-4.562,0.002V149.678z"/>
</g>
</svg>
