<?xml version="1.0" encoding="utf-8"?>
<!-- Generator: Adobe Illustrator 15.0.0, SVG Export Plug-In . SVG Version: 6.00 Build 0)  -->
<!DOCTYPE svg PUBLIC "-//W3C//DTD SVG 1.1//EN" "http://www.w3.org/Graphics/SVG/1.1/DTD/svg11.dtd">
<svg version="1.1" id="Layer_1" xmlns="http://www.w3.org/2000/svg" xmlns:xlink="http://www.w3.org/1999/xlink" x="0px" y="0px"
	 width="360px" height="360px" viewBox="0 0 360 360" enable-background="new 0 0 360 360" xml:space="preserve">
<g>
	<defs>
		<rect id="SVGID_1_" width="360" height="360"/>
	</defs>
	<clipPath id="SVGID_2_">
		<use xlink:href="#SVGID_1_"  overflow="visible"/>
	</clipPath>
	<path clip-path="url(#SVGID_2_)" d="M50.84,176.903c0-82.231,66.661-148.892,148.892-148.892
		c82.231,0,148.893,66.661,148.893,148.892s-66.661,148.892-148.893,148.892C117.501,325.795,50.84,259.134,50.84,176.903"/>
	<path clip-path="url(#SVGID_2_)" fill="#FFFFFF" d="M75.513,176.903c0-68.604,55.615-124.219,124.218-124.219
		c68.604,0,124.219,55.615,124.219,124.219s-55.614,124.218-124.219,124.218C131.128,301.121,75.513,245.507,75.513,176.903"/>
	
		<line clip-path="url(#SVGID_2_)" fill="none" stroke="#000000" stroke-width="21" stroke-miterlimit="10" x1="291.549" y1="0" x2="291.549" y2="80.082"/>
	
		<line clip-path="url(#SVGID_2_)" fill="none" stroke="#000000" stroke-width="21" stroke-miterlimit="10" x1="153.504" y1="99.639" x2="153.504" y2="260.925"/>
	
		<line clip-path="url(#SVGID_2_)" fill="none" stroke="#000000" stroke-width="21" stroke-miterlimit="10" x1="291.549" y1="80.082" x2="153.504" y2="146.414"/>
	
		<line clip-path="url(#SVGID_2_)" fill="none" stroke="#000000" stroke-width="21" stroke-miterlimit="10" x1="153.504" y1="213.625" x2="247.664" y2="260.292"/>
	<polygon clip-path="url(#SVGID_2_)" points="227.697,281.951 284.122,278.361 252.807,231.287 	"/>
	
		<line clip-path="url(#SVGID_2_)" fill="none" stroke="#000000" stroke-width="21" stroke-miterlimit="10" x1="153.504" y1="180.606" x2="11.376" y2="180.606"/>
	
		<line clip-path="url(#SVGID_2_)" fill="none" stroke="#000000" stroke-width="21" stroke-miterlimit="10" x1="284.122" y1="278.361" x2="284.122" y2="360"/>
</g>
</svg>
