<?xml version="1.0" encoding="utf-8"?>
<!-- Generator: Adobe Illustrator 15.0.0, SVG Export Plug-In . SVG Version: 6.00 Build 0)  -->
<!DOCTYPE svg PUBLIC "-//W3C//DTD SVG 1.1//EN" "http://www.w3.org/Graphics/SVG/1.1/DTD/svg11.dtd">
<svg version="1.1" id="Layer_1" xmlns="http://www.w3.org/2000/svg" xmlns:xlink="http://www.w3.org/1999/xlink" x="0px" y="0px"
	 width="83px" height="83px" viewBox="0 0 83 83" enable-background="new 0 0 83 83" xml:space="preserve">
<g>
	<defs>
		<rect id="SVGID_1_" width="83" height="83"/>
	</defs>
	<clipPath id="SVGID_2_">
		<use xlink:href="#SVGID_1_"  overflow="visible"/>
	</clipPath>
	<path clip-path="url(#SVGID_2_)" d="M61.719,5.942H21.072l-0.561,0.324L0.187,41.467v0.649l20.324,35.201l0.561,0.323h40.647
		l0.562-0.323l20.322-35.201v-0.649L62.281,6.266L61.719,5.942 M60.065,9.456l0.007,0.012L60.05,9.456H60.065z M22.741,9.456
		L22.72,9.468l0.007-0.012H22.741z M4.065,41.805l-0.007-0.014l0.007-0.012V41.805z M22.727,74.127l-0.007-0.013l0.021,0.013H22.727
		z M60.065,74.127H60.05l0.022-0.013L60.065,74.127z M60.259,73.791l-0.583,0.336h-36.56l-0.583-0.336L4.252,42.128v-0.674
		L22.533,9.792l0.583-0.336h36.56l0.583,0.336L78.54,41.454v0.674L60.259,73.791z M78.727,41.805v-0.026l0.008,0.012L78.727,41.805z
		"/>
	<line clip-path="url(#SVGID_2_)" x1="20.698" y1="77.641" x2="20.698" y2="77.641"/>
	<polyline clip-path="url(#SVGID_2_)" points="82.792,41.791 82.792,41.792 82.792,41.791 	"/>
	<polyline clip-path="url(#SVGID_2_)" points="0,41.792 0,41.791 0,41.792 	"/>
	<line clip-path="url(#SVGID_2_)" x1="62.094" y1="77.641" x2="62.094" y2="77.641"/>
	<line clip-path="url(#SVGID_2_)" x1="62.094" y1="5.942" x2="62.094" y2="5.942"/>
	<line clip-path="url(#SVGID_2_)" x1="20.698" y1="5.942" x2="20.698" y2="5.942"/>
	<polyline clip-path="url(#SVGID_2_)" points="25.704,9.455 21.239,12.034 17.725,18.12 32.731,9.455 25.704,9.455 	"/>
	<path clip-path="url(#SVGID_2_)" d="M41.059,4.648h0.674l2.241,1.294h7.027L41.72,0.583h-0.648L31.79,5.942h7.028L41.059,4.648
		 M41.396,4.454l0.013,0.007h-0.026L41.396,4.454z"/>
	<polyline clip-path="url(#SVGID_2_)" points="5.546,21.093 5.546,21.094 5.546,21.093 	"/>
	<polyline clip-path="url(#SVGID_2_)" points="77.246,21.094 77.245,21.093 77.246,21.094 	"/>
	<polyline clip-path="url(#SVGID_2_)" points="65.067,18.12 61.553,12.034 57.088,9.456 50.06,9.456 65.067,18.12 	"/>
	<path clip-path="url(#SVGID_2_)" d="M73.395,22.928l0.337,0.583v26.945l3.515-6.087V21.468l-0.325-0.562l-9.281-5.359l3.515,6.087
		L73.395,22.928 M73.731,23.122v0.015l-0.013-0.022L73.731,23.122z"/>
	<path clip-path="url(#SVGID_2_)" d="M77.246,62.115V51.397l-3.515,6.087v2.587l-0.337,0.584l-2.24,1.294l-3.515,6.087l9.281-5.359
		L77.246,62.115 M73.731,60.461l-0.013,0.007l0.013-0.021V60.461z"/>
</g>
<g>
	<defs>
		<rect id="SVGID_3_" y="0.583" width="82.792" height="82.357"/>
	</defs>
	<clipPath id="SVGID_4_">
		<use xlink:href="#SVGID_3_"  overflow="visible"/>
	</clipPath>
	<polyline clip-path="url(#SVGID_4_)" points="57.088,74.127 61.553,71.55 65.067,65.463 50.06,74.127 57.088,74.127 	"/>
	<path clip-path="url(#SVGID_4_)" d="M41.733,78.935h-0.674l-2.241-1.294H31.79L41.072,83h0.648l9.282-5.359h-7.028L41.733,78.935
		 M41.396,79.13l-0.013-0.008h0.026L41.396,79.13z"/>
</g>
<g>
	<defs>
		<rect id="SVGID_5_" width="83" height="83"/>
	</defs>
	<clipPath id="SVGID_6_">
		<use xlink:href="#SVGID_5_"  overflow="visible"/>
	</clipPath>
	<polyline clip-path="url(#SVGID_6_)" points="77.245,62.49 77.246,62.489 77.245,62.49 	"/>
	<polyline clip-path="url(#SVGID_6_)" points="17.725,65.463 21.239,71.55 25.703,74.127 32.731,74.127 17.725,65.463 	"/>
	<path clip-path="url(#SVGID_6_)" d="M9.397,60.655L9.06,60.071V33.127l-3.514,6.087v22.901l0.325,0.562l9.281,5.358l-3.514-6.086
		L9.397,60.655 M9.06,60.461v-0.015l0.013,0.021L9.06,60.461z"/>
	<path clip-path="url(#SVGID_6_)" d="M5.546,21.468v10.717l3.514-6.086v-2.588l0.337-0.583l2.241-1.294l3.514-6.087l-9.281,5.359
		L5.546,21.468 M9.06,23.122l0.013-0.007L9.06,23.137V23.122z"/>
	<polyline clip-path="url(#SVGID_6_)" points="5.546,62.489 5.546,62.49 5.546,62.489 	"/>
	<polyline clip-path="url(#SVGID_6_)" points="42.893,31.41 39.899,31.41 39.524,31.035 39.524,28.041 39.899,27.667 42.893,27.667 
		43.267,28.041 43.267,31.035 42.893,31.41 	"/>
	<polyline clip-path="url(#SVGID_6_)" points="49.442,52.741 49.067,53.115 45.7,53.115 45.325,52.741 41.583,39.643 41.208,39.643 
		37.466,52.741 37.092,53.115 33.724,53.115 33.35,52.741 28.859,37.397 28.859,34.777 29.233,34.403 31.479,34.403 31.853,34.777 
		35.221,47.502 35.595,47.502 39.337,34.777 39.712,34.403 43.08,34.403 43.454,34.777 47.196,47.502 47.571,47.502 50.939,34.777 
		51.313,34.403 53.559,34.403 53.933,34.777 53.933,37.397 49.442,52.741 	"/>
</g>
</svg>
