<?xml version="1.0" encoding="utf-8"?>
<!-- Generator: Adobe Illustrator 15.0.0, SVG Export Plug-In . SVG Version: 6.00 Build 0)  -->
<!DOCTYPE svg PUBLIC "-//W3C//DTD SVG 1.1//EN" "http://www.w3.org/Graphics/SVG/1.1/DTD/svg11.dtd">
<svg version="1.1" id="Layer_1" xmlns="http://www.w3.org/2000/svg" xmlns:xlink="http://www.w3.org/1999/xlink" x="0px" y="0px"
	 width="360px" height="360px" viewBox="0 0 360 360" enable-background="new 0 0 360 360" xml:space="preserve">
<g>
	<defs>
		<rect id="SVGID_1_" width="360" height="360"/>
	</defs>
	<clipPath id="SVGID_2_">
		<use xlink:href="#SVGID_1_"  overflow="visible"/>
	</clipPath>
	<path clip-path="url(#SVGID_2_)" d="M180.051,340.49c-55.681,0.001-111.363-0.07-167.043,0.134
		c-4.536,0.017-7.248-2.022-9.991-4.797c-4.143-4.191-3.029-9.389-2.359-14.33c0.239-1.764,1.72-3.375,2.7-5.017
		c1.857-3.107,3.812-6.156,5.634-9.283c2.606-4.476,5.124-9.001,7.686-13.502c2.529-4.441,5.058-8.883,7.602-13.315
		c2.543-4.432,5.126-8.84,7.649-13.281c1.79-3.151,3.481-6.358,5.269-9.511c2.279-4.017,4.616-7.999,6.92-12.002
		c2.622-4.556,5.246-9.109,7.848-13.679c2.495-4.38,4.948-8.783,7.445-13.163c3.203-5.619,6.433-11.223,9.648-16.834
		c3.251-5.677,6.527-11.341,9.741-17.038c3.35-5.939,6.607-11.931,9.966-17.865c2.205-3.894,4.543-7.713,6.78-11.59
		c2.661-4.611,5.267-9.256,7.919-13.874c3.288-5.727,6.635-11.421,9.892-17.166c3.222-5.683,6.334-11.428,9.548-17.115
		c2.341-4.141,4.798-8.217,7.151-12.35c3.374-5.929,6.679-11.896,10.056-17.823c2.32-4.072,4.722-8.096,7.068-12.153
		c2.553-4.418,5.094-8.844,7.621-13.277c3.304-5.796,6.621-11.585,9.866-17.413c1.166-2.094,2.235-4.252,3.188-6.451
		c1.96-4.521,7.515-8.325,12.398-8.358c0.857-0.005,1.723,0.071,2.572-0.011c4.569-0.443,7.656,2.095,9.944,5.471
		c2.447,3.611,4.357,7.585,6.519,11.391c2,3.521,4.054,7.012,6.027,10.548c2.285,4.096,4.475,8.246,6.768,12.338
		c3.332,5.944,6.736,11.848,10.079,17.786c3.068,5.452,6.078,10.935,9.145,16.388c3.377,6.005,6.812,11.979,10.178,17.99
		c2.496,4.459,4.893,8.973,7.389,13.432c2.564,4.582,5.222,9.112,7.789,13.693c2.433,4.341,4.767,8.736,7.207,13.072
		c2.507,4.453,5.12,8.847,7.631,13.298c2.44,4.326,4.781,8.707,7.215,13.037c4.005,7.125,8.064,14.22,12.072,21.344
		c3.096,5.505,6.131,11.045,9.225,16.551c3.338,5.941,6.728,11.854,10.068,17.795c2.432,4.323,4.802,8.683,7.231,13.008
		c1.947,3.468,3.972,6.893,5.91,10.366c2.286,4.095,4.487,8.238,6.779,12.33c3.329,5.945,6.723,11.855,10.062,17.796
		c3.1,5.515,6.137,11.065,9.254,16.571c2.905,5.132,5.611,10.411,8.959,15.242c1.292,1.864,1.524,3.495,1.559,5.441
		c0.023,1.357-0.184,2.748,0.04,4.068c0.811,4.777-2.425,7.281-5.271,10.174c-1.908,1.938-4.084,1.939-6.434,1.939
		C292.129,340.488,236.09,340.49,180.051,340.49 M163.375,208.126c0.224-0.146,0.447-0.29,0.671-0.436
		c-0.218-0.692-0.312-1.46-0.675-2.065c-1.608-2.682-3.276-5.328-4.955-7.968c-3.168-4.981-6.382-9.934-9.534-14.926
		c-3.569-5.65-7.049-11.357-10.654-16.984c-1.676-2.617-0.896-5.454,1.937-6.605c0.772-0.313,1.45-0.875,2.144-1.36
		c1.329-0.931,2.63-0.912,3.566,0.423c1.01,1.442,1.818,3.03,2.664,4.582c3.203,5.874,6.452,11.724,9.557,17.649
		c3.32,6.335,6.49,12.749,9.75,19.116c0.331,0.647,0.831,1.208,1.253,1.809c-0.376-3.138-1.123-6.066-2.013-8.953
		c-1.107-3.592-2.544-7.095-3.451-10.732c-1.179-4.733,0.822-6.594,5.667-5.483c0.76,0.175,1.768,0.977,1.949,1.675
		c0.929,3.572,1.637,7.202,2.396,10.817c0.545,2.593,1.051,5.194,1.574,7.791c0.265-0.028,0.53-0.058,0.796-0.087
		c0.039-0.887,0.14-1.774,0.107-2.658c-0.33-9.067-0.677-18.133-1.032-27.2c-0.17-4.353-0.229-8.717-0.588-13.055
		c-0.498-6.019,0.407-7.111,6.459-7.037c3.549,0.043,4.671,1.371,4.481,4.906c-0.341,6.347-0.601,12.699-0.822,19.051
		c-0.29,8.282-0.516,16.565-0.755,24.848c-0.039,1.365-0.006,2.733-0.006,4.101c0.554-0.217,0.688-0.448,0.741-0.697
		c1.458-6.746,2.939-13.487,4.337-20.245c0.373-1.805,1.299-2.613,3.121-2.417c0.782,0.084,1.567,0.134,2.351,0.2
		c2.028,0.173,2.966,1.314,2.74,3.299c-0.119,1.046-0.437,2.076-0.731,3.092c-0.414,1.425-0.897,2.829-1.337,4.246
		c-0.315,1.016-0.596,2.041-0.913,3.056c-0.996,3.183-2.012,6.359-2.986,9.549c-0.08,0.263,0.09,0.603,0.261,1.567
		c1.256-2.455,2.212-4.341,3.184-6.218c2.519-4.865,5.046-9.727,7.568-14.59c1.665-3.212,3.323-6.428,4.991-9.64
		c1.921-3.699,3.956-7.344,5.732-11.111c1.004-2.131,3.258-2.976,5.244-1.632c0.813,0.55,1.665,1.085,2.569,1.457
		c2.462,1.012,3.127,3.33,1.639,5.58c-1.411,2.133-2.696,4.349-4.04,6.527c-1.644,2.664-3.282,5.331-4.939,7.987
		c-1.695,2.717-3.435,5.407-5.11,8.136c-2.675,4.354-5.31,8.735-7.967,13.1c-1.112,1.827-2.239,3.645-3.359,5.466l0.946,0.771
		c0.516-0.729,0.982-1.499,1.553-2.182c4.44-5.312,8.862-10.642,13.404-15.865c0.564-0.649,2.033-1.239,2.683-0.952
		c1.967,0.867,3.773,2.206,3.985,4.631c0.065,0.743-0.192,1.768-0.695,2.268c-4.707,4.688-9.502,9.285-14.26,13.921
		c-0.523,0.511-0.975,1.095-1.46,1.645c0.136,0.16,0.271,0.321,0.406,0.482c1.019-0.686,2.028-1.386,3.059-2.055
		c4.104-2.668,8.213-5.325,12.32-7.987c3.637-2.357,7.274-4.713,10.908-7.075c4.163-2.706,8.356-5.364,12.464-8.151
		c1.758-1.192,3.337-1.262,4.729,0.346c0.882,1.018,1.521,2.241,2.348,3.312c1.729,2.24,0.979,4.715-1.641,5.806
		c-2.085,0.868-4.098,1.93-6.082,3.014c-3.475,1.898-6.905,3.877-10.351,5.829c-3.27,1.852-6.512,3.752-9.807,5.556
		c-3.224,1.766-6.511,3.411-9.745,5.157c-1.944,1.049-3.84,2.188-5.758,3.288c0.557,0.508,0.984,0.682,1.306,0.564
		c0.8-0.292,1.521-0.811,2.328-1.068c2.965-0.952,5.967-1.786,8.925-2.759c2.56-0.841,5.146-1.66,7.599-2.759
		c3.308-1.481,4.982-0.745,5.595,2.796c0.098,0.562,0.155,1.133,0.188,1.702c0.08,1.389-0.484,2.349-1.886,2.717
		c-2.606,0.685-5.225,1.328-7.816,2.063c-2.753,0.781-5.481,1.648-8.399,2.532h58.025c-0.698-1.432-1.073-2.341-1.563-3.183
		c-1.888-3.242-3.877-6.428-5.711-9.7c-4.061-7.247-8.032-14.544-12.074-21.802c-3.109-5.584-6.279-11.134-9.408-16.708
		c-3.373-6.009-6.726-12.03-10.094-18.041c-2.398-4.277-4.81-8.547-7.209-12.823c-1.775-3.161-3.526-6.335-5.316-9.487
		c-1.751-3.084-3.586-6.121-5.298-9.225c-2.471-4.479-4.814-9.028-7.305-13.496c-2.419-4.342-4.989-8.599-7.43-12.929
		c-2.578-4.574-5.066-9.198-7.621-13.786c-3.351-6.014-6.719-12.018-10.106-18.011c-0.295-0.521-0.791-0.928-1.193-1.388
		c-0.474,0.461-1.078,0.845-1.398,1.395c-1.744,3.001-3.392,6.057-5.121,9.067c-3.327,5.79-6.708,11.551-10.025,17.346
		c-2.437,4.255-4.784,8.562-7.214,12.819c-3.273,5.734-6.602,11.435-9.882,17.165c-2.47,4.317-4.891,8.663-7.352,12.986
		c-2.563,4.501-5.16,8.984-7.72,13.486c-2.355,4.139-4.664,8.303-7.025,12.438c-1.867,3.269-3.804,6.499-5.673,9.767
		c-2.504,4.378-4.958,8.784-7.461,13.163c-2.464,4.31-4.993,8.584-7.44,12.904c-2.486,4.389-4.871,8.836-7.367,13.22
		c-3.342,5.87-6.773,11.689-10.117,17.558c-2.356,4.133-4.586,8.339-6.959,12.462c-2.479,4.309-5.125,8.522-7.583,12.844
		c-3.229,5.677-6.295,11.447-9.526,17.125c-2.461,4.323-5.132,8.527-7.595,12.851c-2.46,4.32-4.71,8.763-7.177,13.079
		c-3.068,5.366-6.26,10.661-9.409,15.98c-0.693,1.171-0.377,1.751,0.97,1.753c1.286,0.004,2.573-0.041,3.86-0.041
		c42.604-0.003,85.208-0.001,127.812-0.011c1.022-0.001,2.043-0.126,3.111-0.197c-0.363-1.472-0.917-2.635-0.89-3.785
		c0.164-7.141,0.422-14.279,0.721-21.416c0.328-7.848,0.74-15.691,1.093-23.538c0.026-0.567-0.127-1.144-0.196-1.716
		c-0.571,0.604-0.85,1.187-0.976,1.799c-1.178,5.711-2.394,11.414-3.459,17.146c-0.499,2.688-1.337,3.83-3.386,3.364
		c-4.549-1.036-5.346-1.62-4.697-4.573c0.759-3.45,1.926-6.814,2.992-10.192c1.174-3.722,2.444-7.413,3.648-11.126
		c0.127-0.394,0.088-0.841,0.127-1.264c-1.135,1.242-1.962,2.558-2.653,3.94c-1.742,3.485-3.341,7.044-5.148,10.494
		c-2.527,4.825-5.248,9.549-7.779,14.372c-2.474,4.717-4.785,9.519-7.223,14.254c-1.45,2.818-3.535,3.179-6.06,1.179
		c-0.441-0.35-0.936-0.662-1.453-0.88c-2.869-1.209-3.699-3.525-2.077-6.127c1.58-2.532,3.241-5.015,4.877-7.511
		c2.69-4.106,5.393-8.202,8.082-12.309c2.647-4.044,5.284-8.094,7.923-12.144c1.673-2.566,3.387-5.109,4.976-7.728
		c0.348-0.573,0.239-1.422,0.34-2.145c-0.705,0.312-1.613,0.439-2.086,0.961c-4.555,5.024-9.089,10.071-13.507,15.216
		c-1.095,1.276-2.188,2.702-3.838,1.902c-1.64-0.795-3.037-2.21-4.303-3.573c-0.315-0.34,0.135-1.608,0.506-2.306
		c0.353-0.665,1.043-1.161,1.618-1.697c5.274-4.915,10.558-9.82,15.825-14.744c0.202-0.189,0.248-0.547,0.367-0.826
		c-2.112,0.892-3.868,2.153-5.698,3.299c-6.191,3.876-12.432,7.676-18.609,11.573c-5.465,3.448-10.864,7.001-16.308,10.483
		c-2.137,1.369-3.45,1.21-5.001-0.771c-1.044-1.335-2.116-2.76-2.67-4.324c-0.326-0.921,0.057-2.377,0.636-3.253
		c0.581-0.879,1.752-1.427,2.749-1.96c3.182-1.702,6.433-3.278,9.603-5.002c3.356-1.824,6.608-3.843,9.982-5.63
		c4.758-2.52,9.601-4.88,14.378-7.364c1.279-0.666,2.452-1.534,3.674-2.311c-2.415,0.078-4.679,0.535-6.894,1.164
		c-3.949,1.123-7.866,2.354-11.802,3.522c-0.334,0.099-0.797,0.211-1.049,0.062c-0.909-0.536-2.108-0.993-2.546-1.824
		c-0.86-1.631-2.157-3.364-0.955-5.398c0.197-0.333,0.633-0.634,1.015-0.729c3.171-0.798,6.345-1.593,9.539-2.292
		c4.005-0.876,8.03-1.661,12.316-2.541c-11.066,0-21.784-0.013-32.501,0.007c-3.645,0.007-7.327-0.219-10.928,0.206
		c-7.319,0.864-6.457-1.189-6.399-6.548c0.033-3.02,1.152-3.839,4.176-3.679c10.483,0.556,20.969,1.064,31.456,1.545
		c3.997,0.184,8,0.229,11.999,0.365c1.072,0.036,2.14,0.173,3.211,0.264c0.038-0.209,0.075-0.417,0.114-0.626
		c-2.549-0.781-5.072-1.658-7.651-2.322c-3.846-0.991-7.732-1.822-11.595-2.75c-0.477-0.114-0.915-0.396-1.365-0.615
		c-2.857-1.39-3.564-5.304-1.191-7.437c0.677-0.609,2.08-1.056,2.876-0.781c4.212,1.453,8.332,3.171,12.492,4.777
		c2.381,0.919,4.767,1.826,7.173,2.68c0.44,0.155,0.984,0.021,1.48,0.021l0.18-0.568c-0.939-0.569-1.858-1.175-2.821-1.7
		c-3.289-1.794-6.613-3.523-9.887-5.345c-3.153-1.754-6.249-3.612-9.391-5.387c-3.386-1.913-6.797-3.783-10.197-5.67
		c-3.16-1.756-6.256-3.644-9.504-5.214c-1.997-0.966-2.793-1.937-1.782-3.936c0.99-1.955,2.188-3.881,3.667-5.474
		c0.567-0.61,2.412-0.72,3.245-0.268c2.552,1.383,4.893,3.154,7.322,4.767c4.794,3.183,9.595,6.354,14.387,9.54
		c4.018,2.67,8.024,5.36,12.044,8.027c1.518,1.008,3.062,1.978,4.594,2.964c0.123-0.171,0.247-0.343,0.37-0.515
		c-0.331-0.43-0.619-0.903-1-1.283c-4.648-4.641-9.353-9.226-13.916-13.947c-0.625-0.646-1.106-2.39-0.716-2.881
		c1.15-1.449,2.683-2.665,4.26-3.666c0.49-0.311,1.926,0.082,2.375,0.617c3.896,4.642,7.644,9.404,11.483,14.093
		C160.387,204.881,161.91,206.479,163.375,208.126 M209.205,233.58c-0.008,0.132-0.015,0.264-0.022,0.396
		c1.105,0.237,2.212,0.476,3.317,0.715c6.111,1.322,12.217,2.675,18.337,3.953c2.355,0.492,3.202,1.822,2.739,4.654
		c-0.438,2.677-2.25,4.417-4.446,3.813c-4.506-1.238-8.935-2.753-13.399-4.139c-2.71-0.842-5.427-1.662-8.147-2.467
		c-0.118-0.035-0.311,0.181-0.745,0.451c2.47,1.375,4.731,2.669,7.025,3.9c1.934,1.038,3.934,1.953,5.854,3.014
		c3.41,1.884,6.779,3.839,10.169,5.758c3.148,1.782,6.295,3.567,9.455,5.329c3.1,1.729,6.174,3.513,9.34,5.111
		c1.996,1.009,2.817,3.181,1.62,5.114c-0.746,1.203-1.483,2.42-2.324,3.557c-1.047,1.41-2.548,2.133-4.118,1.177
		c-3.515-2.14-6.904-4.483-10.337-6.757c-3.729-2.471-7.437-4.977-11.178-7.429c-5.344-3.504-10.705-6.982-16.071-10.451
		c-1.298-0.839-2.645-1.602-3.969-2.398c-0.138,0.77-0.032,1.198,0.238,1.451c5.579,5.226,11.159,10.447,16.78,15.626
		c1.932,1.78,1.998,2.861,0.053,4.992c-2.079,2.278-4.212,2.676-5.868,0.935c-3.885-4.083-7.698-8.236-11.538-12.36
		c-1.388-1.489-2.776-2.978-4.164-4.467c-0.143,0.125-0.284,0.25-0.427,0.375c0.106,0.326,0.152,0.691,0.328,0.976
		c3.699,5.994,7.402,11.985,11.128,17.963c4.588,7.359,9.215,14.695,13.786,22.065c1.624,2.619,0.892,4.775-1.835,5.939
		c-0.642,0.273-1.214,0.731-1.781,1.152c-2.217,1.646-4.624,0.987-5.82-1.499c-2.368-4.92-4.802-9.808-7.224-14.701
		c-0.782-1.582-1.604-3.145-2.426-4.706c-1.847-3.505-3.748-6.98-5.546-10.51c-1.961-3.85-3.821-7.75-5.747-11.616
		c-0.403-0.81-0.9-1.572-1.354-2.355c-0.199,0.095-0.398,0.189-0.598,0.284c1.169,3.842,2.297,7.697,3.519,11.522
		c1.059,3.313,2.268,6.579,3.314,9.896c0.295,0.935,0.478,2.018,0.298,2.953c-0.151,0.788-0.744,1.769-1.423,2.117
		c-1.182,0.607-2.563,0.879-3.891,1.136c-1.512,0.293-2.5-0.388-2.761-1.949c-0.235-1.407-0.35-2.839-0.654-4.229
		c-1.308-5.972-2.663-11.934-4.013-17.896c-0.121-0.538-0.318-1.059-0.48-1.587c-0.211,0.036-0.423,0.071-0.634,0.107
		c0,0.805-0.042,1.611,0.007,2.413c0.217,3.563,0.591,7.122,0.667,10.688c0.224,10.433,0.341,20.867,0.478,31.301
		c0.04,2.999,0.006,6,0.006,9.269h136.881c-1.519-2.812-2.826-5.302-4.197-7.756c-2.733-4.893-5.5-9.768-8.257-14.649
		c-2.511-4.443-5.032-8.881-7.537-13.327c-3.139-5.574-6.279-11.146-9.39-16.734c-2.382-4.278-4.692-8.597-7.082-12.871
		c-1.871-3.346-3.992-6.563-5.663-10.003c-1.118-2.3-2.496-3.29-5.1-3.279c-19.443,0.078-38.888,0.037-58.331,0.033
		C213.766,233.579,211.485,233.58,209.205,233.58"/>
	<path clip-path="url(#SVGID_2_)" fill="#FFFFFF" d="M163.375,208.126c-1.465-1.646-2.988-3.245-4.384-4.949
		c-3.839-4.688-7.587-9.452-11.483-14.093c-0.449-0.535-1.885-0.928-2.375-0.617c-1.577,1.001-3.11,2.216-4.259,3.666
		c-0.391,0.491,0.09,2.234,0.715,2.881c4.563,4.722,9.268,9.307,13.916,13.947c0.381,0.38,0.669,0.854,1,1.283
		c-0.123,0.172-0.247,0.344-0.37,0.515c-1.532-0.986-3.076-1.956-4.594-2.964c-4.02-2.667-8.026-5.356-12.044-8.028
		c-4.792-3.185-9.593-6.356-14.387-9.539c-2.429-1.612-4.77-3.384-7.321-4.767c-0.834-0.452-2.679-0.343-3.246,0.269
		c-1.479,1.592-2.677,3.518-3.667,5.473c-1.011,1.999-0.215,2.97,1.782,3.936c3.248,1.57,6.344,3.458,9.504,5.213
		c3.4,1.888,6.811,3.758,10.197,5.672c3.142,1.773,6.238,3.632,9.391,5.386c3.274,1.822,6.598,3.551,9.887,5.345
		c0.963,0.525,1.882,1.131,2.821,1.7l-0.18,0.569c-0.496,0-1.04,0.133-1.48-0.022c-2.406-0.853-4.792-1.761-7.173-2.68
		c-4.16-1.606-8.28-3.324-12.492-4.777c-0.796-0.274-2.199,0.172-2.876,0.781c-2.373,2.133-1.666,6.047,1.191,7.437
		c0.45,0.22,0.888,0.501,1.365,0.615c3.863,0.928,7.75,1.759,11.595,2.75c2.579,0.664,5.102,1.541,7.651,2.322
		c-0.038,0.209-0.076,0.417-0.114,0.626c-1.07-0.091-2.139-0.228-3.211-0.264c-3.999-0.136-8.002-0.182-11.999-0.365
		c-10.487-0.48-20.973-0.989-31.456-1.545c-3.024-0.16-4.143,0.659-4.175,3.679c-0.059,5.359-0.921,7.412,6.398,6.548
		c3.601-0.425,7.283-0.199,10.928-0.206c10.717-0.02,21.435-0.007,32.501-0.007c-4.286,0.88-8.311,1.665-12.316,2.541
		c-3.194,0.699-6.368,1.494-9.539,2.292c-0.382,0.096-0.818,0.396-1.015,0.729c-1.202,2.034,0.095,3.768,0.955,5.398
		c0.438,0.831,1.637,1.288,2.546,1.824c0.252,0.148,0.715,0.036,1.049-0.062c3.936-1.168,7.853-2.399,11.802-3.522
		c2.215-0.629,4.479-1.086,6.894-1.164c-1.222,0.775-2.395,1.645-3.674,2.311c-4.777,2.484-9.62,4.845-14.378,7.364
		c-3.374,1.787-6.626,3.806-9.982,5.63c-3.17,1.725-6.42,3.3-9.603,5.002c-0.997,0.533-2.168,1.081-2.749,1.96
		c-0.579,0.876-0.962,2.332-0.636,3.253c0.554,1.564,1.626,2.989,2.671,4.324c1.55,1.981,2.863,2.14,5.001,0.771
		c5.443-3.482,10.842-7.035,16.307-10.483c6.177-3.898,12.418-7.697,18.61-11.573c1.829-1.146,3.585-2.407,5.697-3.299
		c-0.119,0.279-0.165,0.637-0.367,0.826c-5.267,4.924-10.551,9.829-15.825,14.744c-0.575,0.536-1.265,1.033-1.618,1.697
		c-0.371,0.697-0.821,1.966-0.506,2.306c1.266,1.364,2.663,2.779,4.303,3.573c1.65,0.8,2.743-0.626,3.838-1.902
		c4.418-5.145,8.952-10.191,13.507-15.216c0.473-0.521,1.381-0.649,2.086-0.961c-0.101,0.723,0.008,1.571-0.34,2.145
		c-1.589,2.618-3.303,5.161-4.976,7.728c-2.639,4.05-5.276,8.1-7.923,12.144c-2.688,4.106-5.392,8.202-8.082,12.308
		c-1.636,2.497-3.297,4.979-4.876,7.512c-1.623,2.602-0.793,4.918,2.076,6.127c0.517,0.218,1.012,0.53,1.453,0.88
		c2.525,2,4.61,1.64,6.06-1.179c2.438-4.735,4.749-9.537,7.223-14.254c2.531-4.823,5.252-9.547,7.779-14.372
		c1.807-3.45,3.406-7.009,5.148-10.494c0.691-1.382,1.518-2.698,2.653-3.94c-0.038,0.423,0.001,0.87-0.127,1.264
		c-1.203,3.713-2.474,7.404-3.648,11.126c-1.066,3.378-2.233,6.742-2.992,10.192c-0.649,2.953,0.148,3.537,4.697,4.573
		c2.05,0.466,2.887-0.677,3.386-3.364c1.065-5.731,2.281-11.435,3.459-17.146c0.126-0.612,0.405-1.194,0.976-1.799
		c0.069,0.572,0.222,1.148,0.196,1.716c-0.353,7.847-0.765,15.69-1.093,23.538c-0.299,7.137-0.557,14.275-0.721,21.417
		c-0.027,1.149,0.527,2.312,0.891,3.784c-1.069,0.071-2.09,0.196-3.112,0.197c-42.604,0.01-85.208,0.008-127.812,0.011
		c-1.287,0-2.574,0.044-3.86,0.041c-1.347-0.002-1.663-0.582-0.97-1.753c3.149-5.319,6.341-10.613,9.409-15.98
		c2.468-4.316,4.717-8.758,7.178-13.079c2.462-4.323,5.133-8.527,7.594-12.852c3.231-5.677,6.297-11.447,9.526-17.125
		c2.458-4.32,5.104-8.534,7.583-12.843c2.373-4.123,4.603-8.329,6.959-12.462c3.344-5.868,6.775-11.688,10.117-17.558
		c2.496-4.383,4.881-8.831,7.367-13.22c2.447-4.32,4.976-8.595,7.44-12.904c2.503-4.379,4.957-8.785,7.461-13.163
		c1.869-3.268,3.806-6.498,5.673-9.767c2.362-4.135,4.67-8.299,7.025-12.438c2.56-4.502,5.157-8.985,7.72-13.486
		c2.461-4.322,4.882-8.669,7.352-12.986c3.28-5.73,6.609-11.431,9.882-17.165c2.43-4.257,4.778-8.564,7.214-12.819
		c3.317-5.795,6.698-11.556,10.025-17.346c1.729-3.01,3.377-6.066,5.121-9.067c0.32-0.55,0.925-0.934,1.398-1.395
		c0.402,0.46,0.898,0.867,1.193,1.388c3.388,5.993,6.756,11.997,10.106,18.011c2.555,4.588,5.043,9.212,7.621,13.786
		c2.44,4.33,5.011,8.587,7.43,12.929c2.49,4.468,4.834,9.017,7.305,13.496c1.712,3.104,3.547,6.141,5.298,9.225
		c1.79,3.152,3.541,6.326,5.315,9.487c2.4,4.276,4.812,8.546,7.209,12.823c3.369,6.011,6.722,12.032,10.095,18.041
		c3.129,5.574,6.299,11.124,9.408,16.708c4.043,7.258,8.014,14.555,12.074,21.802c1.834,3.272,3.823,6.458,5.711,9.7
		c0.49,0.842,0.865,1.751,1.563,3.183h-58.025c2.918-0.884,5.646-1.752,8.399-2.532c2.592-0.735,5.21-1.379,7.816-2.063
		c1.401-0.368,1.966-1.328,1.886-2.717c-0.033-0.569-0.09-1.141-0.188-1.702c-0.612-3.541-2.287-4.278-5.595-2.796
		c-2.453,1.099-5.039,1.918-7.599,2.759c-2.959,0.973-5.96,1.807-8.925,2.758c-0.807,0.259-1.528,0.777-2.328,1.069
		c-0.321,0.117-0.749-0.057-1.306-0.563c1.918-1.101,3.813-2.24,5.758-3.289c3.234-1.746,6.521-3.392,9.745-5.157
		c3.295-1.803,6.537-3.704,9.807-5.555c3.445-1.953,6.876-3.932,10.351-5.83c1.984-1.084,3.997-2.146,6.082-3.014
		c2.619-1.091,3.37-3.565,1.641-5.806c-0.827-1.07-1.466-2.294-2.348-3.312c-1.392-1.607-2.971-1.537-4.729-0.346
		c-4.107,2.787-8.301,5.445-12.464,8.151c-3.634,2.362-7.271,4.718-10.908,7.075c-4.107,2.662-8.217,5.319-12.32,7.987
		c-1.03,0.669-2.04,1.369-3.059,2.055c-0.136-0.161-0.271-0.322-0.406-0.482c0.485-0.55,0.937-1.134,1.46-1.645
		c4.758-4.636,9.553-9.233,14.26-13.922c0.503-0.5,0.761-1.523,0.695-2.267c-0.212-2.425-2.019-3.764-3.985-4.631
		c-0.65-0.287-2.118,0.303-2.683,0.952c-4.542,5.224-8.963,10.553-13.404,15.866c-0.57,0.682-1.037,1.451-1.553,2.181l-0.946-0.771
		c1.12-1.821,2.247-3.639,3.359-5.466c2.657-4.365,5.292-8.745,7.967-13.1c1.676-2.729,3.415-5.419,5.11-8.136
		c1.657-2.656,3.295-5.323,4.939-7.987c1.344-2.178,2.629-4.394,4.04-6.527c1.488-2.25,0.823-4.568-1.639-5.58
		c-0.904-0.372-1.756-0.906-2.569-1.457c-1.986-1.344-4.24-0.499-5.244,1.632c-1.776,3.767-3.812,7.412-5.732,11.111
		c-1.668,3.211-3.326,6.427-4.991,9.639c-2.522,4.864-5.05,9.726-7.568,14.591c-0.972,1.877-1.928,3.763-3.184,6.218
		c-0.171-0.965-0.341-1.305-0.261-1.567c0.975-3.189,1.99-6.366,2.986-9.549c0.317-1.015,0.598-2.04,0.913-3.056
		c0.439-1.417,0.923-2.821,1.337-4.246c0.295-1.017,0.612-2.046,0.731-3.092c0.226-1.985-0.712-3.126-2.74-3.299
		c-0.783-0.066-1.568-0.116-2.351-0.2c-1.822-0.195-2.749,0.612-3.121,2.417c-1.397,6.758-2.879,13.5-4.337,20.246
		c-0.054,0.25-0.188,0.48-0.741,0.697c0-1.367-0.033-2.735,0.006-4.101c0.239-8.283,0.465-16.566,0.755-24.847
		c0.222-6.353,0.481-12.705,0.822-19.052c0.189-3.534-0.933-4.863-4.481-4.906c-6.052-0.074-6.957,1.019-6.459,7.038
		c0.359,4.337,0.418,8.701,0.588,13.054c0.355,9.067,0.702,18.133,1.033,27.2c0.032,0.884-0.069,1.771-0.108,2.658
		c-0.266,0.029-0.531,0.059-0.796,0.087c-0.523-2.597-1.029-5.198-1.574-7.791c-0.759-3.615-1.467-7.245-2.396-10.817
		c-0.181-0.698-1.189-1.5-1.949-1.675c-4.844-1.111-6.845,0.75-5.667,5.483c0.907,3.639,2.344,7.141,3.451,10.732
		c0.89,2.887,1.637,5.815,2.013,8.953c-0.422-0.601-0.922-1.161-1.253-1.809c-3.26-6.367-6.429-12.78-9.75-19.117
		c-3.105-5.924-6.354-11.774-9.557-17.648c-0.846-1.552-1.654-3.14-2.664-4.582c-0.936-1.335-2.237-1.354-3.566-0.423
		c-0.694,0.486-1.371,1.047-2.143,1.361c-2.833,1.15-3.614,3.987-1.937,6.604c3.604,5.627,7.084,11.335,10.653,16.984
		c3.152,4.992,6.366,9.944,9.535,14.926c1.678,2.64,3.346,5.286,4.954,7.968c0.363,0.605,0.457,1.373,0.675,2.065
		C163.822,207.836,163.599,207.98,163.375,208.126"/>
	<path clip-path="url(#SVGID_2_)" fill="#FFFFFF" d="M209.205,233.58c2.28,0,4.561-0.001,6.841,0
		c19.443,0.004,38.888,0.045,58.331-0.033c2.604-0.011,3.981,0.979,5.1,3.279c1.671,3.439,3.792,6.657,5.663,10.003
		c2.39,4.274,4.7,8.593,7.082,12.871c3.11,5.589,6.251,11.16,9.39,16.734c2.505,4.446,5.026,8.884,7.537,13.327
		c2.757,4.882,5.523,9.757,8.257,14.649c1.371,2.454,2.679,4.944,4.197,7.756H184.722c0-3.269,0.034-6.27-0.006-9.269
		c-0.137-10.434-0.254-20.868-0.478-31.301c-0.076-3.565-0.45-7.124-0.667-10.688c-0.049-0.802-0.007-1.608-0.007-2.413
		c0.211-0.036,0.423-0.071,0.634-0.107c0.162,0.528,0.359,1.049,0.48,1.587c1.35,5.962,2.705,11.924,4.013,17.896
		c0.305,1.391,0.419,2.822,0.654,4.229c0.261,1.562,1.249,2.242,2.761,1.949c1.327-0.257,2.709-0.528,3.891-1.136
		c0.679-0.349,1.271-1.329,1.423-2.117c0.18-0.936-0.003-2.019-0.298-2.953c-1.047-3.316-2.256-6.582-3.314-9.896
		c-1.222-3.825-2.35-7.681-3.519-11.522c0.199-0.095,0.398-0.189,0.598-0.284c0.454,0.783,0.951,1.546,1.354,2.355
		c1.926,3.866,3.786,7.767,5.747,11.616c1.798,3.529,3.699,7.005,5.546,10.51c0.822,1.562,1.644,3.124,2.426,4.706
		c2.422,4.894,4.855,9.781,7.224,14.701c1.196,2.486,3.604,3.146,5.82,1.499c0.567-0.421,1.14-0.879,1.781-1.152
		c2.727-1.164,3.459-3.32,1.835-5.939c-4.571-7.37-9.198-14.706-13.786-22.065c-3.726-5.978-7.429-11.969-11.128-17.963
		c-0.176-0.284-0.222-0.649-0.328-0.976c0.143-0.125,0.284-0.25,0.427-0.375c1.388,1.489,2.776,2.978,4.164,4.467
		c3.84,4.124,7.653,8.277,11.538,12.36c1.656,1.741,3.789,1.344,5.868-0.935c1.945-2.131,1.879-3.212-0.053-4.992
		c-5.621-5.179-11.201-10.4-16.78-15.626c-0.271-0.253-0.376-0.682-0.238-1.451c1.324,0.797,2.671,1.56,3.969,2.398
		c5.366,3.469,10.728,6.947,16.071,10.451c3.741,2.452,7.448,4.958,11.178,7.429c3.433,2.273,6.822,4.617,10.337,6.757
		c1.57,0.956,3.071,0.233,4.118-1.177c0.841-1.137,1.578-2.354,2.324-3.557c1.197-1.934,0.376-4.105-1.62-5.114
		c-3.166-1.599-6.24-3.383-9.34-5.111c-3.16-1.762-6.307-3.547-9.455-5.329c-3.39-1.919-6.759-3.874-10.169-5.758
		c-1.92-1.061-3.92-1.976-5.854-3.014c-2.294-1.231-4.556-2.525-7.025-3.9c0.435-0.271,0.627-0.486,0.745-0.451
		c2.721,0.805,5.438,1.625,8.147,2.467c4.465,1.386,8.894,2.9,13.399,4.139c2.196,0.604,4.009-1.137,4.446-3.813
		c0.463-2.832-0.384-4.162-2.739-4.654c-6.12-1.278-12.226-2.631-18.337-3.953c-1.105-0.239-2.212-0.478-3.317-0.715
		C209.19,233.844,209.197,233.712,209.205,233.58"/>
</g>
</svg>
