<?xml version="1.0" encoding="utf-8"?>
<!-- Generator: Adobe Illustrator 15.0.0, SVG Export Plug-In . SVG Version: 6.00 Build 0)  -->
<!DOCTYPE svg PUBLIC "-//W3C//DTD SVG 1.1//EN" "http://www.w3.org/Graphics/SVG/1.1/DTD/svg11.dtd">
<svg version="1.1" id="Layer_1" xmlns="http://www.w3.org/2000/svg" xmlns:xlink="http://www.w3.org/1999/xlink" x="0px" y="0px"
	 width="360px" height="360px" viewBox="0 0 360 360" enable-background="new 0 0 360 360" xml:space="preserve">
<polygon points="0.234,105.098 0.234,144.491 107.872,163.355 107.872,174.452 20.763,235.483 20.763,277.096 254.348,348.67 
	359.766,101.769 359.766,72.362 339.236,68.479 359.766,34.633 359.766,21.873 246.026,11.331 "/>
<polygon fill="#FFFFFF" points="20.763,107.317 261.561,141.717 351.443,26.866 247.135,16.879 "/>
<polygon fill="#FFFFFF" points="10.221,110.091 10.221,136.723 115.639,155.032 117.859,269.883 25.757,245.47 27.421,269.328 
	248.244,336.463 248.244,307.611 141.161,276.541 141.161,157.252 259.341,176.671 259.341,147.265 "/>
<polygon fill="#FFFFFF" points="246.025,299.844 148.929,270.438 232.154,181.109 264.89,187.768 334.243,75.692 355.327,79.021 "/>
<polygon points="107.872,259.341 26.866,238.258 107.872,181.664 "/>
</svg>
