<?xml version="1.0" encoding="utf-8"?>
<!-- Generator: Adobe Illustrator 15.0.0, SVG Export Plug-In . SVG Version: 6.00 Build 0)  -->
<!DOCTYPE svg PUBLIC "-//W3C//DTD SVG 1.1//EN" "http://www.w3.org/Graphics/SVG/1.1/DTD/svg11.dtd">
<svg version="1.1" id="Layer_1" xmlns="http://www.w3.org/2000/svg" xmlns:xlink="http://www.w3.org/1999/xlink" x="0px" y="0px"
	 width="360px" height="360px" viewBox="0 0 360 360" enable-background="new 0 0 360 360" xml:space="preserve">
<g>
	<defs>
		<rect id="SVGID_1_" width="360" height="360"/>
	</defs>
	<clipPath id="SVGID_2_">
		<use xlink:href="#SVGID_1_"  overflow="visible"/>
	</clipPath>
	<path clip-path="url(#SVGID_2_)" d="M189.781,49.879h150.753c3.905,0,7.572,3.665,7.574,7.613
		c0.008,17.159,0.013,34.318-0.02,51.477c-0.002,1.1,0.302,1.883,1.096,2.649c2.682,2.592,5.267,5.284,7.94,7.885
		c1.936,1.883,2.879,3.966,2.875,6.816c-0.079,54.673-0.069,109.347-0.016,164.021c0.002,2.055-0.762,3.574-2.075,4.908
		c-4.227,4.289-8.484,8.547-12.774,12.773c-1.369,1.351-2.952,2.085-5.04,2.084c-100.341-0.047-200.683-0.054-301.023,0.016
		c-3.312,0.002-7.595-4.059-7.433-7.417c0.087-1.808,0.037-3.623,0.011-5.435c-0.054-3.735,2.254-6.159,5.241-7.38
		c3.001-1.226,6.157-0.891,8.44,1.683c1.43,1.611,2.945,1.979,4.969,1.978c94.373-0.042,188.747-0.041,283.12-0.003
		c1.54,0,2.669-0.303,3.711-1.509c1.459-1.689,3.19-3.142,4.683-4.806c0.504-0.561,0.899-1.455,0.9-2.197
		c0.041-51.477,0.042-102.952-0.003-154.428c-0.001-0.788-0.42-1.749-0.964-2.33c-2.259-2.409-4.605-4.739-6.985-7.03
		c-2.449-2.358-3.607-5.066-3.576-8.579c0.132-14.76,0.034-29.521,0.087-44.282c0.005-1.479-0.308-1.99-1.903-1.99
		c-93.095,0.039-186.189,0.039-279.284,0.001c-1.584-0.001-1.927,0.491-1.912,1.982c0.072,7.353,0.012,14.708,0.042,22.061
		c0.014,3.575-2.008,5.864-4.926,7.276c-2.707,1.31-5.53,1.034-8.082-0.772c-2.467-1.745-3.607-4.054-3.584-7.134
		c0.08-10.764,0.03-21.529,0.032-32.293c0.001-4.292,3.305-7.638,7.535-7.638H189.781z"/>
	<path clip-path="url(#SVGID_2_)" d="M241.899,213.581c28.562,0,57.122-0.001,85.683,0c2.931,0,4.543,1.633,4.543,4.6
		c0.001,9.165,0.002,18.33-0.001,27.495c-0.001,2.938-1.673,4.599-4.629,4.599c-57.228,0.001-114.455,0.001-171.683,0
		c-2.586,0-4.258-1.661-4.259-4.231c-0.003-9.432-0.002-18.862-0.001-28.294c0.001-2.757,1.408-4.166,4.186-4.167
		C184.459,213.58,213.18,213.581,241.899,213.581 M327.287,224.46c-3.425-0.247-6.725,2.947-7.287,6.992
		c-0.499,3.591,2.807,7.215,7.287,7.878V224.46z"/>
	<path clip-path="url(#SVGID_2_)" d="M192.095,116.893c2.335-2.739,4.491-5.617,7-8.144c6.423-6.472,14.074-10.921,23.129-12.4
		c6.927-1.132,13.696-0.31,20.222,2.672c4.762,2.175,8.914,5.051,12.301,8.97c4.024,4.654,6.859,9.948,7.666,16.151
		c0.292,2.245,0.67,4.515,0.609,6.762c-0.204,7.57-2.435,14.444-7.303,20.399c-5.653,6.917-12.889,11.191-21.633,12.561
		c-7.576,1.187-14.979,0.333-22.064-3.056c-5.671-2.711-10.614-6.28-14.806-10.903c-1.789-1.974-3.376-4.134-4.895-6.012
		c-2.607,2.861-5.046,5.854-7.813,8.505c-6.191,5.933-13.555,9.699-22.03,11.236c-7.073,1.283-14.022,0.698-20.644-1.975
		c-10.236-4.131-17.556-11.307-20.459-22.13c-2.261-8.431-1.697-16.895,2.429-24.752c3.19-6.075,7.794-10.884,13.941-14.22
		c4.361-2.367,8.898-4.143,13.798-4.571c7.421-0.647,14.597,0.271,21.457,3.633C181.09,103.583,187.152,109.609,192.095,116.893
		 M155.734,108.822c-1.63,0.152-3.277,0.199-4.885,0.475c-5.572,0.959-10.054,3.814-13.169,8.471
		c-3.797,5.678-4.713,11.949-2.932,18.587c1.981,7.387,6.782,11.923,14.037,14.028c4.001,1.161,8.017,1.056,12.044,0.203
		c6.18-1.308,11.382-4.537,15.69-8.945c2.914-2.982,5.11-6.663,7.652-10.012c0.579-0.764,0.601-1.399,0.155-2.287
		c-2.689-5.364-6.275-9.984-10.933-13.794C168.246,111.338,162.496,108.832,155.734,108.822 M226.155,108.88
		c-2.297-0.085-6.667,1.152-9.863,2.867c-7.234,3.883-12.265,9.883-15.798,17.189c-0.334,0.691-0.377,1.805-0.055,2.486
		c2.966,6.265,7.188,11.527,13.042,15.319c4.938,3.199,10.362,4.534,16.3,4.225c6.08-0.315,11.111-2.611,15.229-6.999
		c2.835-3.021,4.25-6.688,4.802-10.766c0.744-5.502-0.143-10.694-3.395-15.192C241.972,111.862,235.709,109.025,226.155,108.88"/>
	<path clip-path="url(#SVGID_2_)" d="M37.982,101.675c10.71,0,21.421-0.002,32.132,0.001c3.378,0.001,6.225,2.861,6.226,6.253
		c0.002,14.707,0.003,29.414-0.001,44.121c-0.001,3.268-2.892,6.141-6.176,6.142c-21.422,0.002-42.843,0.002-64.264,0
		C2.155,158.191,0,156.045,0,152.339v-44.761c0-3.807,2.128-5.902,6.01-5.903C16.667,101.674,27.324,101.675,37.982,101.675"/>
	<path clip-path="url(#SVGID_2_)" d="M53.739,286.085c-9.322,0-18.644,0.002-27.965-0.001c-3.401-0.001-6.268-2.838-6.269-6.206
		c-0.003-10.76-0.003-21.52,0-32.279c0.001-2.986,3.087-6.19,6.057-6.192c18.963-0.017,37.926-0.017,56.889,0
		c2.762,0.003,5.709,2.991,5.713,5.764c0.017,11.132,0.017,22.265,0.001,33.397c-0.004,3.019-2.725,5.511-5.982,5.515
		C72.702,286.091,63.22,286.085,53.739,286.085"/>
	<path clip-path="url(#SVGID_2_)" d="M31.653,199.687c0-10.069,0.023-20.139-0.012-30.209c-0.012-3.649,1.997-5.966,5.024-7.363
		c2.734-1.262,5.523-0.954,8.065,0.876c2.412,1.737,3.509,3.999,3.502,7.009c-0.052,20.033-0.027,40.066-0.028,60.099
		c0,3.562-1.782,6.153-5.191,7.562c-2.833,1.17-6.63,0.369-8.872-1.688c-1.82-1.669-2.502-3.685-2.497-6.077
		C31.667,219.826,31.653,209.757,31.653,199.687"/>
	<path clip-path="url(#SVGID_2_)" d="M180.252,210.218h-8.929c0.088-1.979-0.038-3.991,0.322-5.912
		c0.392-2.096,2.723-3.232,5.128-2.862c1.85,0.285,3.426,2.051,3.472,3.959C180.281,206.938,180.252,208.477,180.252,210.218"/>
	<path clip-path="url(#SVGID_2_)" d="M195.38,210.211c0-1.885-0.153-3.691,0.04-5.46c0.234-2.146,2.417-3.484,4.996-3.318
		c2.019,0.131,3.753,1.899,3.808,3.951c0.042,1.576,0.009,3.155,0.009,4.827H195.38z"/>
	<path clip-path="url(#SVGID_2_)" d="M228.212,210.217h-8.929c0.088-1.977-0.039-3.988,0.32-5.909
		c0.392-2.096,2.723-3.233,5.127-2.864c1.852,0.284,3.428,2.048,3.474,3.957C228.242,206.937,228.212,208.475,228.212,210.217"/>
	<path clip-path="url(#SVGID_2_)" d="M324.131,210.236h-8.803c0-1.944-0.208-3.86,0.055-5.709c0.303-2.131,2.666-3.396,5.164-3.09
		c1.919,0.233,3.537,2.025,3.578,4.02C324.156,206.988,324.131,208.521,324.131,210.236"/>
	<path clip-path="url(#SVGID_2_)" d="M243.34,210.211c0-1.885-0.154-3.691,0.039-5.46c0.234-2.145,2.416-3.484,4.996-3.318
		c2.019,0.131,3.754,1.898,3.809,3.95c0.042,1.577,0.008,3.156,0.008,4.828H243.34z"/>
	<path clip-path="url(#SVGID_2_)" d="M276.166,210.307c-2.758,0-5.248,0.003-7.739-0.004c-0.308-0.001-0.615-0.051-1.114-0.096
		c0-1.849-0.142-3.649,0.038-5.417c0.208-2.048,2.461-3.587,4.807-3.381c1.979,0.174,3.856,1.688,3.985,3.617
		C276.254,206.706,276.166,208.399,276.166,210.307"/>
	<path clip-path="url(#SVGID_2_)" d="M300.145,210.229h-8.852c0-1.861-0.139-3.66,0.036-5.428c0.202-2.057,2.47-3.597,4.795-3.393
		c1.982,0.175,3.865,1.68,3.997,3.605C300.235,206.695,300.145,208.39,300.145,210.229"/>
	<path clip-path="url(#SVGID_2_)" d="M303.437,210.156c0-1.889-0.118-3.742,0.033-5.574c0.154-1.892,2.492-3.284,4.956-3.149
		c1.636,0.089,3.473,1.854,3.544,3.479c0.053,1.219,0.012,2.442,0.013,3.664v1.581H303.437z"/>
	<path clip-path="url(#SVGID_2_)" d="M279.457,210.211c0-1.938-0.104-3.79,0.03-5.623c0.125-1.698,2.266-3.161,4.315-3.157
		c1.921,0.005,4.008,1.509,4.162,3.157c0.127,1.37,0.041,2.76,0.033,4.141c-0.003,0.464-0.056,0.928-0.091,1.482H279.457z"/>
	<path clip-path="url(#SVGID_2_)" d="M264.022,210.221h-8.567c0.422-2.762-1.171-5.812,1.736-8.066
		c1.362-1.057,2.926-1.045,4.328-0.415c1.396,0.628,2.543,1.705,2.509,3.512C263.999,206.84,264.022,208.43,264.022,210.221"/>
	<path clip-path="url(#SVGID_2_)" d="M240.029,210.217h-8.533c0-1.931-0.098-3.779,0.029-5.612c0.115-1.663,2.212-3.168,4.142-3.174
		c2.058-0.005,4.201,1.443,4.331,3.14C240.138,206.405,240.029,208.258,240.029,210.217"/>
	<path clip-path="url(#SVGID_2_)" d="M216.063,210.214h-8.565c0.454-2.643-1.163-5.546,1.49-7.829
		c1.117-0.961,3.257-1.404,4.567-0.683c1.423,0.783,2.585,1.815,2.519,3.69C216.02,206.968,216.063,208.547,216.063,210.214"/>
	<path clip-path="url(#SVGID_2_)" d="M183.538,210.211c0-1.938-0.104-3.79,0.03-5.623c0.125-1.698,2.266-3.161,4.315-3.157
		c1.92,0.005,4.039,1.508,4.157,3.157c0.131,1.834,0.029,3.685,0.029,5.623H183.538z"/>
	<path clip-path="url(#SVGID_2_)" d="M168.103,210.231h-8.54c0-1.962-0.142-3.867,0.04-5.741c0.182-1.884,2.592-3.234,5.038-3.057
		c1.693,0.123,3.428,1.97,3.457,3.729C168.124,206.798,168.103,208.435,168.103,210.231"/>
	<path clip-path="url(#SVGID_2_)" d="M315.254,253.628h8.822c-0.202,2.658,1.034,5.492-1.566,7.664
		c-1.487,1.241-3.218,1.118-4.768,0.491c-1.49-0.603-2.515-1.868-2.492-3.682C315.269,256.675,315.254,255.247,315.254,253.628"/>
	<path clip-path="url(#SVGID_2_)" d="M291.274,253.628h8.822c-0.202,2.658,1.034,5.492-1.566,7.664
		c-1.487,1.242-3.218,1.118-4.768,0.491c-1.49-0.603-2.515-1.868-2.492-3.682C291.289,256.675,291.274,255.247,291.274,253.628"/>
	<path clip-path="url(#SVGID_2_)" d="M276.437,253.645c-0.3,2.227-0.208,4.457-0.96,6.354c-0.848,2.138-3.196,2.737-5.409,2.031
		c-1.539-0.49-2.771-2.426-2.772-4.359c-0.002-1.312-0.001-2.623-0.001-4.025H276.437z"/>
	<path clip-path="url(#SVGID_2_)" d="M252.457,253.645c-0.301,2.227-0.209,4.457-0.96,6.354c-0.848,2.138-3.197,2.737-5.409,2.031
		c-1.54-0.49-2.771-2.426-2.773-4.359c-0.002-1.312,0-2.623,0-4.025H252.457z"/>
	<path clip-path="url(#SVGID_2_)" d="M219.335,253.618h8.839c-0.243,2.635,0.996,5.393-1.483,7.589
		c-1.482,1.313-3.205,1.183-4.75,0.625c-1.565-0.564-2.627-1.882-2.608-3.759C219.347,256.649,219.335,255.225,219.335,253.618"/>
	<path clip-path="url(#SVGID_2_)" d="M195.355,253.618h8.841c-0.246,2.646,0.99,5.408-1.495,7.598
		c-1.484,1.307-3.206,1.176-4.751,0.61c-1.563-0.573-2.626-1.884-2.599-3.766C195.372,256.637,195.355,255.213,195.355,253.618"/>
	<path clip-path="url(#SVGID_2_)" d="M171.375,253.626h8.858c-0.287,2.599,0.988,5.329-1.42,7.484
		c-1.091,0.977-3.496,1.472-4.873,0.749c-1.5-0.786-2.609-1.932-2.571-3.819C171.398,256.619,171.375,255.196,171.375,253.626"/>
	<path clip-path="url(#SVGID_2_)" d="M207.505,253.631h8.54c0,1.97,0.162,3.878-0.043,5.745c-0.234,2.126-3.576,3.439-5.957,2.497
		c-1.942-0.77-2.535-1.629-2.539-3.696C207.502,256.704,207.505,255.232,207.505,253.631"/>
	<path clip-path="url(#SVGID_2_)" d="M231.577,253.639h8.405c0,1.973,0.195,3.983-0.058,5.936c-0.231,1.782-2.729,2.846-5.208,2.522
		c-1.833-0.238-3.204-1.706-3.228-3.489c-0.019-1.379-0.004-2.758,0.004-4.137C231.494,254.261,231.534,254.051,231.577,253.639"/>
	<path clip-path="url(#SVGID_2_)" d="M255.464,253.645h8.547c0,1.934,0.006,3.774-0.009,5.614c-0.002,0.197-0.109,0.398-0.189,0.588
		c-0.717,1.718-2.955,2.729-5.26,2.218c-1.46-0.322-3.297-1.427-3.111-3.768C255.562,256.784,255.464,255.254,255.464,253.645"/>
	<path clip-path="url(#SVGID_2_)" d="M183.525,253.619h8.52c0,1.987,0.168,3.944-0.049,5.857c-0.203,1.797-2.574,2.885-5.136,2.624
		c-1.838-0.187-3.299-1.651-3.328-3.392C183.504,257.074,183.525,255.438,183.525,253.619"/>
	<path clip-path="url(#SVGID_2_)" d="M287.99,253.644c0,1.932,0.006,3.772-0.009,5.612c-0.001,0.197-0.107,0.398-0.188,0.589
		c-0.714,1.718-2.95,2.729-5.259,2.221c-1.472-0.324-3.3-1.438-3.114-3.766c0.121-1.512,0.023-3.043,0.023-4.656H287.99z"/>
	<path clip-path="url(#SVGID_2_)" d="M311.97,253.644c0,1.931,0.006,3.771-0.008,5.611c-0.002,0.196-0.107,0.398-0.187,0.589
		c-0.715,1.718-2.949,2.729-5.259,2.222c-1.477-0.325-3.301-1.442-3.115-3.765c0.12-1.512,0.022-3.043,0.022-4.657H311.97z"/>
	<path clip-path="url(#SVGID_2_)" d="M159.714,253.623h8.344c0,2.011,0.201,3.978-0.054,5.883c-0.276,2.059-3.589,3.28-5.899,2.381
		c-1.93-0.752-2.556-1.647-2.558-3.687c-0.002-1.325,0.006-2.651,0.021-3.978C159.569,254.073,159.638,253.925,159.714,253.623"/>
	<path clip-path="url(#SVGID_2_)" fill="#FFFFFF" d="M327.287,224.46v14.87c-4.48-0.663-7.786-4.287-7.287-7.878
		C320.562,227.407,323.862,224.213,327.287,224.46"/>
	<path clip-path="url(#SVGID_2_)" fill="#FFFFFF" d="M155.734,108.822c6.762,0.01,12.513,2.516,17.661,6.726
		c4.658,3.809,8.243,8.43,10.932,13.794c0.445,0.888,0.424,1.523-0.155,2.286c-2.542,3.35-4.738,7.031-7.653,10.013
		c-4.308,4.408-9.51,7.637-15.689,8.945c-4.027,0.852-8.044,0.958-12.045-0.203c-7.255-2.105-12.056-6.641-14.037-14.028
		c-1.781-6.638-0.865-12.909,2.933-18.587c3.114-4.657,7.596-7.512,13.168-8.471C152.457,109.021,154.104,108.974,155.734,108.822
		 M146.161,133.744h21.844v-7.3h-21.844V133.744z"/>
	<path clip-path="url(#SVGID_2_)" fill="#FFFFFF" d="M226.155,108.88c9.553,0.144,15.816,2.982,20.261,9.129
		c3.253,4.498,4.14,9.69,3.396,15.192c-0.552,4.078-1.967,7.745-4.802,10.766c-4.117,4.388-9.148,6.684-15.229,6.999
		c-5.938,0.308-11.362-1.027-16.3-4.225c-5.854-3.792-10.076-9.054-13.042-15.319c-0.322-0.681-0.279-1.795,0.055-2.486
		c3.533-7.306,8.563-13.307,15.797-17.189C219.488,110.032,223.858,108.794,226.155,108.88 M222.853,133.856
		c0,2.009,0.048,3.766-0.016,5.518c-0.044,1.193,0.445,1.61,1.604,1.568c1.702-0.06,3.411-0.064,5.113,0.001
		c1.212,0.046,1.601-0.481,1.55-1.623c-0.061-1.329,0.05-2.667-0.033-3.993c-0.071-1.128,0.336-1.505,1.457-1.454
		c1.727,0.079,3.46,0.021,5.176,0.021v-7.919c-1.786,0-3.479-0.057-5.165,0.02c-1.105,0.05-1.518-0.299-1.471-1.441
		c0.081-1.942,0.022-3.89,0.022-5.838h-8.234v7.369h-6.932v7.771H222.853z"/>
	<rect x="146.161" y="126.444" clip-path="url(#SVGID_2_)" width="21.844" height="7.3"/>
	<path clip-path="url(#SVGID_2_)" d="M222.853,133.856h-6.928v-7.771h6.932v-7.369h8.234c0,1.948,0.059,3.896-0.022,5.838
		c-0.047,1.142,0.365,1.491,1.471,1.441c1.686-0.077,3.379-0.02,5.165-0.02v7.919c-1.716,0-3.449,0.058-5.176-0.021
		c-1.121-0.051-1.528,0.326-1.457,1.454c0.083,1.326-0.027,2.664,0.033,3.993c0.051,1.142-0.338,1.669-1.55,1.623
		c-1.702-0.065-3.411-0.061-5.113-0.001c-1.159,0.042-1.648-0.375-1.604-1.568C222.9,137.622,222.853,135.865,222.853,133.856"/>
</g>
</svg>
