<?xml version="1.0" encoding="utf-8"?>
<!-- Generator: Adobe Illustrator 15.0.0, SVG Export Plug-In . SVG Version: 6.00 Build 0)  -->
<!DOCTYPE svg PUBLIC "-//W3C//DTD SVG 1.1//EN" "http://www.w3.org/Graphics/SVG/1.1/DTD/svg11.dtd">
<svg version="1.1" id="Layer_1" xmlns="http://www.w3.org/2000/svg" xmlns:xlink="http://www.w3.org/1999/xlink" x="0px" y="0px"
	 width="360px" height="360px" viewBox="0 0 360 360" enable-background="new 0 0 360 360" xml:space="preserve">
<g>
	<defs>
		<rect id="SVGID_1_" width="360" height="360"/>
	</defs>
	<clipPath id="SVGID_2_">
		<use xlink:href="#SVGID_1_"  overflow="visible"/>
	</clipPath>
	<path clip-path="url(#SVGID_2_)" d="M180.253,341.018H9.273c-1.204,0-2.409-0.042-3.611,0.002c-1.387,0.05-2.28-0.447-3.353-1.495
		c-2.035-1.985-2.318-4.181-2.309-6.79c0.067-20.462,0.035-40.925,0.042-61.387c0.002-3.976,3.308-7.329,7.318-7.339
		c11.856-0.028,23.713-0.014,35.569-0.014c55.428-0.001,110.857,0,166.287,0c3.576,0,4.142-0.554,5.168-4.046
		c0.975-3.317,2.235-6.549,3.273-9.85c0.699-2.221,1.354-4.471,1.807-6.751c0.862-4.342,1.568-8.715,2.33-13.076
		c0.083-0.473,0.021-0.985,0.173-1.43c1.854-5.456,1.387-11.184,1.969-16.786c0.466-4.483,1.171-9,1.019-13.476
		c-0.203-5.985-0.468-12.112-1.916-17.875c-1.883-7.491-6.195-13.758-12.564-18.537c-3.343-2.507-6.958-4.421-10.695-6.118
		c-2.42-1.099-5.057-1.763-7.645-2.44c-4.041-1.058-8.107-2.03-12.192-2.901c-1.807-0.385-3.685-0.442-5.532-0.634
		c-4.186-0.435-8.366-1.158-12.559-1.238c-14.074-0.268-28.157-0.56-42.225-0.292c-4.757,0.09-9.499,1.743-14.215,2.825
		c-2.781,0.639-5.522,1.483-8.233,2.379c-1.748,0.577-3.538,1.21-5.087,2.174c-4.351,2.707-8.831,5.296-12.811,8.491
		c-5.654,4.538-10.356,10.037-13.427,16.708c-1.745,3.79-3.396,7.642-4.762,11.581c-0.61,1.759-0.535,3.796-0.562,5.71
		c-0.07,4.994-0.016,9.99-0.03,14.985c-0.016,5.489-3.489,8.992-8.912,9.007c-2.889,0.008-5.778,0.027-8.667-0.005
		c-1.365-0.015-1.818,0.463-1.834,1.933c-0.125,11.309-0.357,22.617-0.578,33.925c-0.013,0.652-0.142,1.326-0.347,1.947
		c-0.462,1.39-1.541,1.915-2.943,1.905c-1.32-0.008-1.964-0.81-2.214-1.972c-0.239-1.114-0.516-2.247-0.539-3.377
		c-0.219-10.943-0.407-21.887-0.549-32.831c-0.016-1.271-0.614-1.53-1.668-1.524c-2.889,0.015-5.792-0.183-8.663,0.039
		c-5.717,0.44-8.405-4.006-9.006-8.683c-0.076-0.592-0.023-1.202-0.023-1.804c0-53.743-0.018-107.487,0.061-161.231
		c0.003-2.268,0.505-4.732,1.497-6.749c1.001-2.034,2.813-3.825,5.473-3.832c10.652-0.029,21.305-0.059,31.957,0.013
		c3.106,0.021,6.68,3.817,6.903,7.071c0.091,1.319,0.079,2.648,0.051,3.971c-0.122,5.652,1.927,10.664,4.566,15.495
		c3.812,6.982,9.435,12.271,16.083,16.414c2.894,1.803,6.17,3.095,9.414,4.207c3.608,1.238,7.366,2.042,11.079,2.956
		c1.097,0.269,2.258,0.36,3.392,0.381c12.521,0.24,25.02-0.073,37.489-1.374c3.045-0.317,6.133-0.182,9.195-0.36
		c10.62-0.615,21.241-1.222,31.854-1.943c6.054-0.411,12.084-1.228,18.142-1.53c14.289-0.713,28.536-2.393,42.875-1.965
		c1.504,0.045,2.387-0.347,3.026-1.867c0.331-0.788,1.587-1.336,2.537-1.668c0.812-0.285,1.785-0.125,2.687-0.128
		c1.013-0.003,1.312-0.491,1.308-1.477c-0.062-15.887-0.103-31.773-0.126-47.66c-0.005-3.114,0.038-3.131-3.182-3.278
		c-1.703-0.078-3.096-0.669-3.708-2.35c-0.7-1.919-0.418-3.867,0.606-5.551c0.284-0.467,1.528-0.481,2.333-0.483
		C261.321,18.993,272.576,19,283.83,19c1.745-0.001,3.496,0.093,5.234-0.014c1.596-0.097,2.334,0.623,2.542,2.101
		c0.041,0.298,0.128,0.589,0.169,0.887c0.488,3.555-1.068,5.375-4.646,5.436c-2.632,0.045-2.522,0.045-2.521,2.516
		c0.01,16.067-0.014,32.135-0.091,48.202c-0.006,1.308,0.402,1.745,1.621,1.709c0.839-0.024,1.77-0.163,2.501,0.137
		c0.929,0.38,2.085,0.98,2.448,1.795c0.612,1.371,1.415,1.757,2.773,1.69c1.44-0.07,2.888,0.009,4.332,0.002
		c4.186-0.021,7.929,1.457,11.661,3.187c3.31,1.535,5.827,3.922,8.292,6.483c0.586,0.609,1.616,1.033,2.473,1.092
		c2.217,0.149,4.45,0.04,6.676,0.046c1.328,0.005,1.652-0.563,1.611-1.921c-0.153-5.049-0.472-10.133-0.047-15.146
		c0.387-4.579,3.33-8.534,8.838-8.252c4.681,0.239,9.396,0.238,14.077-0.01c3.693-0.195,5.601,2.277,7.822,4.399
		c0.247,0.236,0.234,0.79,0.259,1.201c0.048,0.781,0.046,1.564,0.046,2.347c0.002,33.822,0.009,67.646-0.024,101.468
		c-0.002,1.322,0.043,3.009-0.694,3.893c-1.813,2.172-3.806,4.229-7.18,4.097c-4.987-0.195-9.988-0.032-14.983-0.055
		c-3.689-0.018-6.229-1.761-7.262-5.26c-0.567-1.92-0.949-3.959-0.991-5.955c-0.088-4.204,0.137-8.413,0.132-12.62
		c-0.001-0.462-0.653-1.311-1.024-1.323c-3.366-0.108-6.738-0.115-10.104-0.016c-0.436,0.013-1.119,0.74-1.227,1.237
		c-0.534,2.454-1.087,4.926-1.315,7.421c-0.948,10.357-2.284,20.702-1.629,31.142c0.487,7.741,0.957,15.485,1.619,23.213
		c0.518,6.034,1.141,12.072,2.055,18.058c0.678,4.43,1.905,8.774,2.877,13.16c0.505,2.278,1.026,4.554,1.461,6.846
		c0.288,1.525,1.226,1.826,2.605,1.82c9.268-0.034,18.54,0.134,27.802-0.101c3.142-0.079,5.226,1.364,7.336,3.164
		c0.274,0.235,0.412,0.725,0.461,1.115c0.089,0.714,0.085,1.441,0.085,2.163c0.003,21.605-0.072,43.212,0.101,64.816
		c0.021,2.592-1.474,3.837-2.723,5.464c-0.223,0.29-0.885,0.314-1.35,0.334c-1.263,0.054-2.527,0.049-3.791,0.049
		C294.843,341.018,237.548,341.018,180.253,341.018"/>
</g>
</svg>
