<?xml version="1.0" encoding="utf-8"?>
<!-- Generator: Adobe Illustrator 15.0.0, SVG Export Plug-In . SVG Version: 6.00 Build 0)  -->
<!DOCTYPE svg PUBLIC "-//W3C//DTD SVG 1.0//EN" "http://www.w3.org/TR/2001/REC-SVG-20010904/DTD/svg10.dtd">
<svg version="1.0" id="Layer_1" xmlns="http://www.w3.org/2000/svg" xmlns:xlink="http://www.w3.org/1999/xlink" x="0px" y="0px"
	 width="360px" height="360px" viewBox="0 0 360 360" enable-background="new 0 0 360 360" xml:space="preserve">
<g>
	<defs>
		<rect id="SVGID_1_" width="360" height="360"/>
	</defs>
	<clipPath id="SVGID_2_">
		<use xlink:href="#SVGID_1_"  overflow="visible"/>
	</clipPath>
	<path clip-path="url(#SVGID_2_)" d="M168.421,1.327h23.158c0.896,0.209,1.784,0.54,2.692,0.609
		c25.643,1.955,49.885,8.88,72.195,21.566c54.083,30.753,84.603,77.256,92.175,138.769c0.596,4.831,0.912,9.697,1.358,14.547v4.894
		c-0.165,1.492-0.428,2.981-0.479,4.478c-0.461,13.311-2.398,26.388-5.773,39.284c-24.598,93.977-119.404,151.219-214.138,129.027
		c-40.04-9.379-73.37-29.956-98.89-62.121C7.157,250.078-5.192,201.902,3.976,148.761c6.524-37.817,24.022-70.282,51.725-97.024
		C83.116,25.272,115.862,9.263,153.584,3.4C158.518,2.633,163.475,2.014,168.421,1.327 M180.498,251.665
		c39.358-0.068,71.396-32.198,71.394-71.599c-0.002-39.15-32.334-71.134-71.884-71.109c-39.104,0.025-71.161,32.183-71.188,71.413
		C108.794,219.584,141.117,251.734,180.498,251.665 M224.701,281.667c13.792-0.117,19.185,8.201,13.854,19.293
		c-1.555,3.235-3.695,6.187-5.5,9.306c-1.572,2.713-3.231,5.4-4.487,8.258c-0.547,1.245-0.654,3.083-0.143,4.312
		c1.524,3.663,13.951,10.091,18.032,9.588c0.563-0.069,1.112-0.351,1.641-0.593c39.119-17.943,67.345-46.568,84.667-85.841
		c0.459-1.042,0.74-2.754,0.202-3.544c-3.192-4.693-6.304-9.524-10.124-13.688c-3.465-3.773-5.659-3.521-9.641-0.036
		c-3.067,2.685-5.766,5.787-8.828,8.479c-2.61,2.295-5.279,4.692-8.32,6.299c-6.698,3.537-13.941,0.623-16.521-6.465
		c-0.901-2.477-1.314-5.18-1.603-7.817c-0.556-5.084-0.85-10.196-1.278-15.294c-0.187-2.226-1.403-3.155-3.579-2.488
		c-8.57,2.625-16.339,6.921-21.396,14.292c-9.896,14.424-22.274,25.585-38.521,32.366c-0.989,0.412-2.208,1.191-2.547,2.088
		c-2.37,6.274-4.878,12.531-6.648,18.982c-1.156,4.215,0.089,5.268,4.545,4.77C214.41,283.274,220.278,282.299,224.701,281.667
		 M89.18,150.599c2.723-0.589,5.468-1.095,8.165-1.788c3.644-0.935,6.113-2.914,7.879-6.577
		c6.407-13.286,15.832-24.201,28.391-32.041c6.619-4.134,9.561-10.315,11.567-17.16c1.564-5.336,0.468-7.089-4.648-9.217
		c-2.575-1.071-5.295-1.788-7.922-2.74c-3.718-1.348-7.566-2.457-11.076-4.225c-5.476-2.758-7.94-7.583-7.005-12.852
		c0.764-4.305,3.591-7.294,7.052-9.603c4.361-2.91,8.966-5.454,13.355-8.323c4.453-2.91,4.745-4.735,0.347-7.773
		c-5.235-3.617-11.046-6.4-16.553-9.636c-2.138-1.255-3.993-0.895-6.137,0.079c-34.348,15.606-60.39,40.023-78.546,72.955
		c-2.029,3.679-3.134,7.191-1.771,11.201c1.897,5.585,3.558,11.287,5.975,16.646c1.654,3.667,3.203,3.688,6.163,1.02
		c2.334-2.104,4.369-4.533,6.647-6.703c2.778-2.646,5.409-5.564,8.568-7.672c7.285-4.858,15.391-1.96,18.314,6.263
		c0.618,1.737,1.08,3.573,1.294,5.401c0.568,4.85,0.885,9.729,1.445,14.581C81.4,148.626,83.241,150.271,89.18,150.599"/>
	<path clip-path="url(#SVGID_2_)" fill="#FFFFFF" d="M168.421,1.327c-4.946,0.687-9.903,1.306-14.836,2.073
		c-37.723,5.863-70.469,21.873-97.884,48.337C27.998,78.479,10.5,110.944,3.976,148.762c-9.167,53.141,3.181,101.316,36.743,143.618
		c25.52,32.165,58.85,52.742,98.89,62.121c94.734,22.191,189.542-35.05,214.138-129.026c3.375-12.897,5.312-25.975,5.773-39.285
		c0.052-1.496,0.314-2.985,0.479-4.478V360H0V1.327H168.421z"/>
	<path clip-path="url(#SVGID_2_)" fill="#FFFFFF" d="M360,176.818c-0.446-4.85-0.763-9.715-1.358-14.547
		c-7.572-61.513-38.092-108.016-92.175-138.768c-22.311-12.687-46.553-19.611-72.195-21.566c-0.908-0.07-1.796-0.401-2.692-0.61H360
		V176.818z"/>
	<path clip-path="url(#SVGID_2_)" fill="#FFFFFF" d="M180.498,251.665c-39.382,0.069-71.704-32.081-71.678-71.295
		c0.027-39.23,32.083-71.388,71.188-71.413c39.549-0.025,71.881,31.959,71.883,71.109
		C251.894,219.467,219.856,251.597,180.498,251.665 M217.068,180.465c0.204-20.087-16.24-36.739-36.496-36.954
		c-20.221-0.214-36.965,16.432-37.036,36.819c-0.07,19.977,16.197,36.399,36.374,36.725
		C200.229,217.382,216.859,201.005,217.068,180.465"/>
	<path clip-path="url(#SVGID_2_)" fill="#FFFFFF" d="M224.701,281.667c-4.423,0.632-10.291,1.607-16.194,2.267
		c-4.456,0.498-5.701-0.555-4.545-4.77c1.771-6.451,4.278-12.708,6.648-18.981c0.339-0.897,1.558-1.677,2.547-2.089
		c16.246-6.78,28.625-17.942,38.521-32.366c5.058-7.371,12.826-11.667,21.396-14.292c2.176-0.667,3.393,0.263,3.579,2.488
		c0.429,5.098,0.723,10.21,1.278,15.294c0.288,2.638,0.701,5.341,1.603,7.817c2.579,7.088,9.822,10.002,16.521,6.465
		c3.041-1.606,5.71-4.004,8.32-6.299c3.062-2.691,5.761-5.794,8.828-8.479c3.981-3.484,6.176-3.737,9.641,0.036
		c3.82,4.163,6.932,8.994,10.124,13.688c0.538,0.79,0.257,2.502-0.202,3.544c-17.322,39.272-45.548,67.897-84.667,85.841
		c-0.528,0.242-1.077,0.524-1.641,0.593c-4.081,0.503-16.508-5.925-18.032-9.588c-0.512-1.229-0.404-3.067,0.143-4.312
		c1.256-2.857,2.915-5.545,4.487-8.258c1.805-3.119,3.945-6.07,5.5-9.306C243.886,289.868,238.493,281.55,224.701,281.667"/>
	<path clip-path="url(#SVGID_2_)" fill="#FFFFFF" d="M89.18,150.599c-5.939-0.328-7.78-1.973-8.496-8.164
		c-0.56-4.852-0.877-9.731-1.445-14.581c-0.214-1.828-0.676-3.664-1.294-5.401c-2.923-8.223-11.029-11.121-18.314-6.263
		c-3.159,2.108-5.79,5.026-8.568,7.672c-2.278,2.17-4.313,4.599-6.647,6.703c-2.96,2.668-4.509,2.647-6.163-1.02
		c-2.417-5.359-4.078-11.061-5.975-16.646c-1.363-4.01-0.258-7.522,1.771-11.201c18.156-32.932,44.198-57.349,78.546-72.955
		c2.144-0.974,3.999-1.334,6.137-0.079c5.507,3.236,11.318,6.019,16.553,9.636c4.398,3.038,4.106,4.863-0.347,7.773
		c-4.389,2.869-8.994,5.413-13.355,8.323c-3.461,2.309-6.288,5.298-7.052,9.603c-0.935,5.269,1.529,10.094,7.005,12.852
		c3.51,1.768,7.358,2.877,11.076,4.225c2.627,0.952,5.347,1.669,7.922,2.74c5.116,2.128,6.212,3.881,4.648,9.217
		c-2.006,6.845-4.948,13.026-11.567,17.16c-12.559,7.84-21.984,18.755-28.391,32.041c-1.766,3.663-4.235,5.642-7.879,6.577
		C94.648,149.504,91.903,150.01,89.18,150.599"/>
	<path clip-path="url(#SVGID_2_)" d="M217.068,180.465c-0.209,20.54-16.84,36.917-37.158,36.59
		c-20.177-0.325-36.443-16.748-36.374-36.725c0.071-20.387,16.815-37.033,37.037-36.819
		C200.828,143.726,217.272,160.377,217.068,180.465 M180.31,156.575c-12.807-0.092-23.638,10.691-23.68,23.573
		c-0.042,13.073,10.709,23.879,23.758,23.878c12.782-0.002,23.603-10.767,23.738-23.617
		C204.262,167.473,193.466,156.669,180.31,156.575"/>
	<path clip-path="url(#SVGID_2_)" fill="#FFFFFF" d="M180.31,156.575c13.156,0.094,23.952,10.898,23.816,23.834
		c-0.136,12.851-10.956,23.615-23.738,23.617c-13.049,0.001-23.8-10.805-23.758-23.878
		C156.672,167.266,167.503,156.483,180.31,156.575"/>
</g>
</svg>
