<?xml version="1.0" encoding="utf-8"?>
<!-- Generator: Adobe Illustrator 15.0.0, SVG Export Plug-In . SVG Version: 6.00 Build 0)  -->
<!DOCTYPE svg PUBLIC "-//W3C//DTD SVG 1.1//EN" "http://www.w3.org/Graphics/SVG/1.1/DTD/svg11.dtd">
<svg version="1.1" id="Layer_1" xmlns="http://www.w3.org/2000/svg" xmlns:xlink="http://www.w3.org/1999/xlink" x="0px" y="0px"
	 width="360px" height="360px" viewBox="0 0 360 360" enable-background="new 0 0 360 360" xml:space="preserve">
<g>
	<defs>
		<rect id="SVGID_1_" width="360" height="360"/>
	</defs>
	<clipPath id="SVGID_2_">
		<use xlink:href="#SVGID_1_"  overflow="visible"/>
	</clipPath>
	<path clip-path="url(#SVGID_2_)" d="M0.215,333.604c-1.119-4.504,2.396-6.904,4.557-9.746c6.305-8.293,12.849-16.406,19.339-24.558
		c6.199-7.783,12.47-15.51,18.669-23.291c6.368-7.994,12.677-16.036,19.032-24.041c7.105-8.949,14.246-17.87,21.347-26.824
		c8.384-10.572,16.733-21.174,25.115-31.75c4.938-6.231,9.918-12.431,14.863-18.657c5.815-7.32,11.594-14.668,17.422-21.977
		c6.246-7.833,12.55-15.621,18.793-23.457c4.41-5.536,8.78-11.105,13.128-16.69c1.323-1.7,3.233-2.03,5.041-0.782
		c6.686,4.614,13.377,9.22,20.086,13.8c2.678,1.828,2.679,1.771,4.965-0.545c3.474-3.52,6.745-7.293,10.548-10.416
		c3.337-2.741,7.314-4.661,11.766-1.953c4.081,2.485,8.176,4.953,12.177,7.563c4.521,2.948,9.039,5.914,13.381,9.113
		c4.949,3.646,10.258,3.282,15.647,1.745c1.794-0.512,3.608-1.576,4.975-2.856c4.915-4.602,10.587-6.26,17.134-4.982
		c1.276,0.25,2.474,0.886,3.728,1.281c0.876,0.276,1.774,0.514,2.681,0.654c5.118,0.792,9.94-0.25,14.586-2.395
		c2.258-1.042,4.853,0.267,4.71,2.732c-0.176,3.094-0.929,6.178-1.73,9.188c-0.145,0.539-1.722,0.94-2.65,0.967
		c-1.244,0.035-2.515-0.572-3.741-0.477c-0.66,0.051-1.482,0.877-1.819,1.557c-0.46,0.931-0.502,2.063-0.77,3.096
		c-0.82,3.169-1.118,3.382-4.402,3.265c-4.16-0.148-4.161-0.148-4.958,3.964c-0.663,3.419-1.416,3.972-5.121,3.767
		c-3.984-0.221-3.984-0.221-4.511,3.675c-0.464,3.427-2.121,4.514-5.639,3.694c-3.935-0.918-3.935-0.918-4.215,3.16
		c-0.037,0.534-0.037,1.072-0.097,1.603c-0.221,1.964-1.07,2.726-3.051,2.627c-1.6-0.079-3.193-0.288-4.793-0.384
		c-1.239-0.074-1.841,0.57-1.863,1.814c-0.021,1.137-0.089,2.273-0.15,3.408c-0.098,1.791-1.116,2.684-2.845,2.705
		c-1.334,0.017-2.672-0.09-4.003-0.2c-1.627-0.135-2.551,0.54-2.746,2.184c-0.135,1.129-0.314,2.253-0.442,3.383
		c-0.191,1.69-1.104,2.544-2.814,2.411c-1.062-0.083-2.154-0.143-3.167-0.437c-1.711-0.497-2.519,0.166-2.876,1.781
		c-0.318,1.436-0.686,2.864-1.098,4.275c-0.479,1.64-1.569,2.183-3.245,1.781c-1.473-0.353-3.188-1.103-4.394-0.637
		c-0.756,0.292-0.798,2.501-1.109,3.861c-0.852,3.727-1.13,3.949-5.016,3.803c-4.184-0.157-4.184-0.157-4.673,3.996
		c-0.358,3.038-1.191,3.79-4.276,3.769c-1.069-0.007-2.17,0.032-3.198-0.202c-1.721-0.394-2.389,0.283-2.392,1.915
		c-0.001,0.2-0.025,0.401-0.019,0.602c0.151,4.6-0.938,6.546-6.944,5.066c-2.688-0.661-2.768-0.619-2.861,2.22
		c-0.004,0.134-0.004,0.268-0.009,0.402c-0.192,5.076-1.077,5.752-5.98,4.572c-2.995-0.722-3.777-0.158-3.96,2.848
		c-0.304,4.986-0.38,5.056-5.469,4.895c-0.602-0.019-1.205-0.06-1.803-0.114c-1.308-0.122-2.018,0.517-2.252,1.754
		c-0.174,0.92-0.342,1.842-0.479,2.769c-0.483,3.283-0.726,3.487-4.128,3.373c-4.379-0.146-4.379-0.146-5.494,4.202
		c-0.95,3.712-1.825,4.214-5.558,3.191c-3.031-0.83-3.021-0.829-3.578,2.353c-0.162,0.922-0.325,1.853-0.607,2.741
		c-0.685,2.152-1.979,2.852-4.153,2.334c-0.455-0.108-0.902-0.266-1.363-0.331c-3.864-0.552-3.762,0.354-3.74,3.001
		c0.033,4.219-0.983,5.011-5.202,4.855c-4.372-0.161-4.372-0.161-4.767,4.306c-0.239,2.702-0.97,3.441-3.623,3.439
		c-1.333-0.001-2.676-0.111-3.993-0.314c-1.497-0.231-2.114,0.328-2.13,1.812c-0.011,1.135-0.163,2.268-0.254,3.4
		c-0.152,1.862-1.182,2.833-3.029,2.717c-1.322-0.083-2.642-0.336-3.941-0.616c-1.652-0.357-2.626,0.098-2.685,1.917
		c-0.026,0.803-0.067,1.605-0.124,2.406c-0.23,3.246-1.107,3.91-4.404,3.38c-0.856-0.139-1.72-0.25-2.585-0.321
		c-1.511-0.124-2.427,0.473-2.555,2.1c-0.078,0.997-0.321,1.98-0.436,2.976c-0.276,2.396-0.802,2.904-3.146,2.938
		c-0.402,0.006-0.803-0.004-1.205-0.018c-4.292-0.147-4.292-0.148-5.302,3.949c-1.001,4.056-1.129,4.143-5.491,3.756
		c-3.262-0.29-3.257-0.289-3.766,2.852c-0.085,0.527-0.216,1.049-0.361,1.563c-0.906,3.213-2.078,3.912-5.269,3.159
		c-3.567-0.841-3.567-0.841-4.085,2.837c-0.587,4.17-1.594,4.903-5.717,4.204c-0.658-0.111-1.33-0.138-1.995-0.206
		c-1.537-0.157-2.204,0.497-2.148,2.075c0.19,5.411-0.549,6.364-6.689,5.824c-3.171-0.277-3.219-0.259-3.296,3.017
		c-0.014,0.602-0.021,1.206-0.077,1.805c-0.201,2.17-0.982,2.954-3.201,3.022c-1.265,0.039-2.543-0.05-3.803-0.188
		c-2.373-0.26-2.645-0.051-2.733,2.395c-0.015,0.401-0.011,0.804-0.038,1.204c-0.25,3.792-1.39,4.718-5.115,4.16
		c-4.54-0.681-4.54-0.681-4.895,4.017c-0.231,3.07-1.341,3.904-4.322,3.252c-4.514-0.986-4.843-0.76-5.541,3.831
		c-0.567,3.727-0.718,3.901-4.618,3.711c-4.586-0.225-4.055-0.859-5.153,3.906c-0.818,3.555-0.867,3.264-4.452,3.602
		c-4.559,0.43-8.074-0.918-11.376-4.118c-3.873-3.754-8.124-7.155-12.453-10.386C-0.427,337.373,0.536,335.396,0.215,333.604"/>
	<path clip-path="url(#SVGID_2_)" d="M299.273,119.616c-1.006-0.338-2.581-0.987-4.216-1.398c-4.72-1.183-9.187-3.14-14.434-1.376
		c-3.88,1.304-7.01,3.409-10.134,5.757c-3.925,2.95-8.3,3.941-13.022,2.771c-1.487-0.369-2.836-1.439-4.153-2.328
		c-5.793-3.908-11.529-7.899-17.333-11.791c-2.477-1.66-4.937-3.442-7.638-4.646c-3.969-1.768-8.071-1.713-12.173,0.1
		c-4.987,2.205-8.038,6.539-11.644,10.24c-2.642,2.711-3.072,2.984-6.164,0.871c-5.66-3.869-11.298-7.769-16.912-11.704
		c-2.323-1.628-2.505-3.1-0.738-5.289c4.235-5.246,8.531-10.444,12.747-15.706c5.092-6.354,10.086-12.786,15.205-19.118
		c2.327-2.878,5.057-5.377,8.673-6.535c4.167-1.334,8.355-2.638,12.604-3.671c2.931-0.712,8.557-5.699,8.609-9.168
		c0.062-4.179,4.288-8.308,8.645-9.244c6.265-1.346,11.847-4.66,14.871-10.52c2.476-4.798,5.219-9.209,9.721-12.153
		c3.249-2.125,6.836-3.762,10.361-5.427c2.376-1.123,4.895-1.953,7.382-2.819c0.347-0.12,0.986,0.193,1.313,0.496
		c1.519,1.407,2.854,3.039,4.482,4.297c2.457,1.899,0.998,5.206-1.478,5.668c-3.459,0.646-6.049,2.684-8.332,5.181
		c-4.846,5.296-3.6,12.683,2.428,15.909c3.89,2.083,7.979,3.29,12.328,3.493c3.472,0.161,6.373,1.751,9.306,3.255
		c8.613,4.42,14.603,11.728,20.608,18.996c2.19,2.649,5.013,4.431,8.167,5.567c3.212,1.158,5.978-0.483,8.259-2.427
		c4.494-3.828,3.78-3.79,7.857,0.235c1.33,1.314,2.701,2.598,4.156,3.769c1.812,1.459,1.853,3.608,0.002,5.073
		c-2.608,2.064-5.069,4.346-7.833,6.174c-2.781,1.839-5.915,3.199-9.361,3.057c-6.987-0.288-11.85,3.116-15.246,8.804
		c-2.204,3.692-3.798,7.747-5.972,11.459c-2.373,4.055-5.424,7.581-9.451,10.179C307.467,117.775,303.939,119.14,299.273,119.616
		 M256.003,57.497c-0.468,0-0.937-0.011-1.405,0.002c-3.849,0.111-7.117,1.419-9.513,4.571c-1.731,2.278-1.941,5.01-1.779,7.621
		c0.123,1.97,0.836,4.073,1.852,5.781c2.115,3.556,6.022,4.778,9.624,5.959c3.577,1.173,7.441,1.443,11.135,2.302
		c3.164,0.734,6.356,1.503,9.369,2.683c4.483,1.756,8.938,3.667,13.187,5.922c4.127,2.189,8.399,1.847,12.711,1.568
		c2.39-0.154,5.002-3.189,5.296-5.567c0.826-6.692-3.465-13.082-9.519-15.249c-1.794-0.642-3.454-1.66-5.173-2.512
		c-3.379-1.676-6.716-3.445-10.146-5.011c-3.732-1.704-7.541-3.243-11.333-4.813C265.729,58.859,260.924,57.913,256.003,57.497
		 M300.544,106.545c-1.079,1.046-1.743,1.69-2.407,2.334c0.793,0.761,1.513,1.978,2.406,2.123c0.597,0.098,1.7-1.228,2.052-2.123
		C302.739,108.51,301.508,107.6,300.544,106.545 M197.142,100.009c0.675,0.589,1.272,1.511,2.043,1.691
		c1.269,0.297,2.652-0.331,2.487-1.785c-0.092-0.807-1.247-1.816-2.138-2.133C198.287,97.337,197.592,98.272,197.142,100.009"/>
</g>
</svg>
